<?xml version="1.0" encoding="utf-8"?>
<!-- Generator: Adobe Illustrator 26.0.1, SVG Export Plug-In . SVG Version: 6.00 Build 0)  -->
<svg version="1.1" id="Layer_1" xmlns="http://www.w3.org/2000/svg" xmlns:xlink="http://www.w3.org/1999/xlink" x="0px" y="0px"
	 viewBox="0 0 2000 2000" style="enable-background:new 0 0 2000 2000;" xml:space="preserve">
<style type="text/css">
	.st0{fill:#948389;}
	.st1{fill:#C4A952;}
</style>
<g>
	<g>
		<path class="st0" d="M1140.72,858.98c-56.71,7.12-79.82,18.22-107.43,38.91l-3.34,2.4c-0.51,0.17-1.02,0.34-1.53,0.51
			c-0.55,0.18-1.1,0.36-1.65,0.55l-9.82,3.35l2.53-3.4c5.8-7.79,11.87-15.33,18.05-22.41c1-1.36,1.83-2.67,2.7-4.07l0.41-0.48
			c19.96-14.84,28.01-32.23,31.25-44.2c4.32-16,2.75-32-4.32-43.91l-0.7-1.18l-1.22,0.82c-32.12,21.68-30.42,78.49-29.75,89.66
			l0.16,2.7l-0.37,0.39c-8.6,8.93-16.75,18.9-24.92,30.5l-1.98,2.81l-0.88-3.18c-1.84-6.65-3.96-13.8-6.5-21.86l0-0.01
			c1.91,8.7,3.73,17.23,5.19,25.84l1.7-0.28l-1.57,2.45c-8.35,12.41-16.12,25.83-23.1,39.9c-2.26,4.56-4.54,9.46-7.18,15.45
			l-2.04,4.63l-1.2-6.14c-0.46-2.35-0.92-4.7-1.41-7.04l-0.12-0.55l0.39-0.45c4.23-4.86,17.98-56.93-21.26-88.79l-2.14-1.74v2.49
			c0,4.62-0.21,9.75-0.44,15.17c-1.15,27.42-2.59,61.51,21.88,73l0.71,0.33l0.08,0.68c0.73,6.15,1.31,11.68,1.77,16.92l0.02,0.27
			l-0.1,0.25c-7.21,17.52-13.47,36.31-18.6,55.84l-1.27,4.83l-1.74-4.73c-3.96-10.79-11.9-23.32-20.23-31.92l-0.27-0.28l-0.06-0.35
			c-3.21-17.78-16.72-41.07-44.24-48.18l-1.81-0.47l0.19,1.58c2.62,22.15,17.08,45.83,43.47,48.8l0.62,0.07l0.39,0.41
			c11.61,12.11,21.5,30.85,22.04,41.77l0.01,0.15l-0.03,0.15c-4.86,20.83-8.46,42.39-10.72,64.09l-0.27,2.58l-3.83-2.84
			c-0.78-0.57-1.56-1.14-2.33-1.72c-3.21-2.37-6.05-4.52-8.65-6.56c-2.2-1.74-4.37-3.57-6.39-5.29l-0.33-0.28l-0.09-0.39
			c-9.72-42.73-24.44-64.9-60.58-91.23l-2.54-1.85l0.47,2.8c12.16,72.35,31.7,88.48,61.33,91.88l2.24,0.26l1.63,1.54
			c1.15,1.09,2.29,2.18,3.48,3.24c2.42,2.15,5.11,4.45,8.21,7.02l1.74,1.45c1.68,1.4,3.43,2.85,4.94,4.27l0.45,0.42l-0.05,0.56
			c-0.33,3.57-0.63,7.13-0.89,10.7c-1.02,14.66-1.36,29.58-0.99,44.36c0.07,3.13,0.17,6.27,0.26,9.42
			c0.33,11.12,0.68,22.59,0.03,33.61l5.95-0.41c-2.28-16.62-3.28-34.08-3.07-53.33l0-0.25l0.12-0.23
			c4.33-8.73,10.16-17.06,17.33-24.77c5.56-5.98,12.12-11.88,19.58-17.59c-7.76,5.49-14.49,11.09-20.44,17
			c-4.92,4.89-9.45,10.3-13.45,16.1l-3.07,4.44l0.17-5.13c0.25-7.47,0.66-15.22,1.23-23.02c2.21-29.79,6.91-59.22,13.99-87.47
			c0.88-3.5,1.8-7.01,2.75-10.5l0.13-0.31c3.86-6.29,9.14-12.44,15.7-18.28c5.2-4.63,11.03-9.02,17.71-13.33
			c-6.93,4.06-13.02,8.24-18.5,12.68c-3,2.44-5.96,5.15-8.8,8.05l-4.4,4.5l1.69-5.65c6.76-22.59,14.51-42.76,23.71-61.67
			c6.82-14.05,14.43-27.44,22.61-39.81c1.65-2.5,3.48-5.16,5.76-8.37l0.26-0.37l0.47-0.17c3.17-1.14,6.14-2.45,9-3.71
			c0.88-0.39,1.77-0.78,2.66-1.16c1.02-0.45,2.07-0.9,3.11-1.35c0.74-0.32,1.49-0.63,2.23-0.96l0.32-0.14l1.26-0.03
			c53.78-1.22,83.63-7.38,107.81-39.14l1.49-1.96L1140.72,858.98z"/>
		<path class="st0" d="M980.92,810.44l-1.66-1.3l-0.44,1.86c-9.13,38.67,3.81,68.35,21.61,74.72l0.77,0.27l0.07,0.33l0.74-1.04
			C1014.18,868.14,1002.75,827.57,980.92,810.44z"/>
		<path class="st0" d="M1080.04,1043.02l0.45-1.8l-2.08,0.58c-53.42,14.88-88.25,41.25-90.89,68.81l-0.12,1.3l1.54-0.17
			C1017.32,1108.67,1066.91,1095.66,1080.04,1043.02z"/>
		<path class="st0" d="M1030.36,993.47c54.42,0,71.55-28.24,76.35-51.94l0.36-1.75l-2.01,0.58c-7.29,2.1-14.45,3.96-21.36,5.76
			c-33.84,8.79-63.07,16.38-78.92,44.19l-0.74,1.29l2.66,0.32C1015.03,992.95,1023,993.47,1030.36,993.47z"/>
	</g>
	<path class="st1" d="M1140.48,857.69c-57.1,7.17-80.4,18.36-108.24,39.23l-2.9,2.17c-1.06,0.36-2.13,0.7-3.18,1.07
		c-1.79,0.61-3.59,1.23-5.38,1.84c5.67-7.62,11.65-15.08,17.98-22.33l0.09-0.1l0.01-0.01c1.02-1.4,1.9-2.81,2.79-4.22
		c20.15-14.98,28.4-32.55,31.73-44.89c4.4-16.29,2.78-32.61-4.45-44.78l-1.56-2.63l-2.73,1.84c-32.7,22.07-31,79.46-30.32,90.74
		l0.13,2.2c-9.3,9.65-17.53,19.99-25.05,30.66c-2.03-7.35-4.22-14.64-6.51-21.9l0.44-0.62c12.46-17.56,0.88-59.02-21.36-76.47
		l-3.7-2.9l-0.98,4.17c-7.29,30.87-0.86,67.81,22.52,76.17c2,9.12,3.96,18.26,5.46,27.37l0.08-0.01
		c-8.7,12.94-16.38,26.34-23.18,40.04c-2.54,5.12-4.91,10.3-7.2,15.5c-0.54-2.78-1.08-5.56-1.66-8.33
		c4.42-5.08,18.8-57.82-21.43-90.5l-4.77-3.88v5.57c0,4.61-0.22,9.73-0.44,15.15c-1.17,27.77-2.6,62.29,22.68,74.16
		c0.67,5.63,1.27,11.26,1.76,16.88c-7.55,18.33-13.68,37.06-18.65,55.99c-4.07-11.06-12.14-23.71-20.51-32.36
		c-3.3-18.31-17.06-41.93-45.32-49.24l-4.05-1.05l0.42,3.54c3.74,31.59,24.99,47.73,44.81,49.97c11.59,12.09,21.18,30.6,21.7,41
		c-4.95,21.23-8.5,42.68-10.74,64.22c-1.29-0.95-2.57-1.88-3.84-2.84c-2.93-2.15-5.81-4.32-8.63-6.54
		c-2.17-1.71-4.26-3.48-6.35-5.26c-9.79-43.04-24.67-65.43-61.09-91.97l-5.68-4.14l1.05,6.25c12.3,73.17,32.28,89.5,62.66,92.99
		l1.67,0.19c1.58,1.49,3.13,3,4.76,4.45c2.7,2.4,5.47,4.75,8.25,7.05c2.25,1.89,4.62,3.8,6.61,5.66c-0.33,3.57-0.63,7.15-0.89,10.73
		c-1.03,14.8-1.36,29.64-1,44.47c0.35,14.83,1.17,29.95,0.2,44.42l9.33-0.64c-2.55-18.04-3.44-36.27-3.24-54.51
		c4.33-8.73,10.12-16.95,17.12-24.47c7.32-7.87,15.82-15.02,24.98-21.55c0.95-0.68,1.94-1.34,2.9-2.01l1.53-0.16
		c28.8-3.11,79.1-16.32,92.43-69.75l1-4.01l-4.64,1.29c-54.03,15.05-89.26,41.85-91.95,69.95l-0.09,0.99
		c-0.98,0.63-1.98,1.25-2.96,1.9c-9.55,6.3-18.55,13.28-26.46,21.14c-5.09,5.05-9.63,10.52-13.61,16.28
		c0.25-7.67,0.67-15.33,1.23-22.98c2.17-29.32,6.76-58.54,13.95-87.28c0.88-3.5,1.79-6.99,2.74-10.48
		c4.01-6.53,9.35-12.55,15.45-17.99c6.79-6.04,14.46-11.45,22.57-16.35c1.63-0.98,3.29-1.93,4.96-2.87l2.73,0.33
		c8.65,1.06,16.59,1.56,23.89,1.56c54.8,0,72.8-27.9,77.88-53.03l0.8-3.92l-4.49,1.3c-7.23,2.09-14.39,3.95-21.32,5.75
		c-34.19,8.88-63.72,16.55-79.86,44.88l-0.68,1.19c-1.85,0.94-3.68,1.89-5.5,2.87c-8.5,4.64-16.62,9.84-23.99,15.81
		c-3.15,2.56-6.12,5.29-8.92,8.16c6.26-20.92,13.93-41.54,23.64-61.5c6.6-13.58,14.06-26.86,22.53-39.68
		c1.86-2.81,3.78-5.58,5.74-8.34c4.2-1.51,7.91-3.25,11.76-4.91c1.77-0.79,3.56-1.53,5.34-2.3l0.9-0.02
		c54.34-1.23,84.52-7.49,109.07-39.75l3.33-4.37L1140.48,857.69z M981.85,816.17c17.44,16.8,24.95,47.65,18.77,63.29
		c-2.76-8.61-5.57-17.21-8.46-25.78c2.18,9.04,4.26,18.09,6.29,27.14C985.03,872.76,975.74,847.75,981.85,816.17z M952.31,887.99
		c0.14-3.28,0.27-6.45,0.36-9.48c25.96,24.97,22.36,58.79,18.57,73.31c-2.55-11.47-5.29-22.89-8-34.32
		c1.85,12.78,3.74,25.56,5.36,38.35C950.02,943.67,951.26,912.99,952.31,887.99z M889.16,959.02c21.75,7.41,33.12,26.07,36.71,41.62
		C909.87,997.66,893.47,984.14,889.16,959.02z M860.95,1012.18c29.47,22.57,42.64,42.31,51.66,77.46c-0.76-0.72-1.57-1.41-2.31-2.15
		c-4.98-4.97-9.57-10.22-13.72-15.73c-4.14-5.52-7.63-11.36-10.76-17.36c2.69,6.14,5.77,12.19,9.54,17.95
		c3.78,5.75,8.04,11.31,12.73,16.6c1.55,1.74,3.22,3.42,4.86,5.1C888.18,1089.73,872.11,1073.46,860.95,1012.18z M1074.93,1046.42
		c-12.78,42.71-51.58,56.5-78.53,60.86c5.55-3.62,11.21-7.14,16.88-10.65c9.63-6.06,19.74-11.95,27.37-19.88
		c-7.98,7.66-18.28,13.16-28.18,18.92c-6.84,3.89-13.68,7.81-20.37,11.92C996.89,1083.73,1028.63,1060.25,1074.93,1046.42z
		 M1084.9,949.38c5.5-1.43,11.15-2.9,16.89-4.49c-11.06,42.68-54.41,47.89-90.81,44.08c4.38-2.26,8.85-4.39,13.41-6.39
		c8.91-3.89,18.11-7.35,27.67-10.02c-9.7,2.3-19.12,5.41-28.29,8.97c-4.03,1.57-8.01,3.27-11.93,5.04
		C1027.56,964.33,1054.28,957.34,1084.9,949.38z M1065.43,790.58c9.58,19.51,5.15,49.39-17.15,72.15c0.88-2.05,1.69-4.11,2.4-6.2
		c1.42-3.98,2.51-8.05,3.25-12.15c0.85-4.08,1.21-8.22,1.34-12.33c-0.85,4.06-1.69,8.1-3,12.04c-1.23,3.95-2.78,7.82-4.48,11.63
		c-1.71,3.8-3.65,7.53-5.79,11.16c-0.71,1.19-1.48,2.36-2.23,3.53c-0.01,0-0.01,0.01-0.02,0.01
		C1039.33,853.62,1040.79,810.15,1065.43,790.58z M1045.47,895.95c7.45-2.93,15.08-5.55,22.98-7.6c-7.97,1.39-15.81,3.37-23.51,5.67
		c22.5-15.46,44.87-24.62,90.03-30.82C1114.15,887.68,1088.19,894.19,1045.47,895.95z"/>
</g>
</svg>
