<?xml version="1.0" encoding="utf-8"?>
<!-- Generator: Adobe Illustrator 26.0.1, SVG Export Plug-In . SVG Version: 6.00 Build 0)  -->
<svg version="1.1" id="Layer_1" xmlns="http://www.w3.org/2000/svg" xmlns:xlink="http://www.w3.org/1999/xlink" x="0px" y="0px"
	 viewBox="0 0 2000 2000" style="enable-background:new 0 0 2000 2000;" xml:space="preserve">
<style type="text/css">
	.st0{fill:#948389;}
	.st1{fill:#C4A952;}
</style>
<g>
	<path class="st0" d="M1041.48,888.84c-3.97-3.33-6.63-3.66-10.65-4.16c-2.7-0.34-6.39-0.79-11.83-2.4c-0.1-0.03-0.2-0.05-0.31-0.07
		c-1.99-0.38-4.06-0.57-6.16-0.57c-14.54,0-28.21,9.2-35.06,14.69l-2.37,1.89l0.97-2.87c6.43-19.07,8.06-36.45,4.6-48.95
		c-1.77-6.4-4.93-10.59-9.14-12.14c-1.87-0.69-3.26-0.99-4.5-0.99c-2.77,0-4.26,1.57-5.35,2.72c-1.2,1.27-2.33,2.46-5,2.65
		c-2.57,0.18-3.53-1.01-4.75-2.88c-0.83-1.28-1.61-2.48-3.14-2.79c-0.08-0.02-0.17-0.03-0.26-0.04c-1.24-0.15-2.54,0.33-4.22,1.47
		c-16.31,11.06-18.7,35.52-17.82,54.1c0.12,2.53,0.31,5.13,0.58,7.94l0.33,3.35l-1.94-2.75c-20.5-29.11-35.92-34.7-41.59-35.75
		c-5.03-0.94-9.51,0.02-13.31,2.84c-4.06,3.02-5.98,5.54-7.52,7.56c-1.44,1.89-2.39,3.14-4.44,4c-4.1,1.72-3.7,4.94-3,7.83
		c0.19,0.8,0.31,1.31,0.3,1.68c-0.03,0.83-0.91,1.65-2.88,3.16c-1.47,1.13-3.13,2.41-4.38,4.17c-2.93,4.15-2.85,9.72,0.23,15.68
		c6.31,12.23,23.08,23.97,43.75,30.64l3.19,1.03l-3.28,0.69c-16.1,3.38-42.07,17.88-49.4,39.54c-3.46,10.22,0.75,15.05,4.83,19.72
		c2.43,2.79,4.95,5.67,6.11,9.85c0.65,2.35,2.5,3.8,5.5,4.32c0.86,0.15,1.8,0.22,2.8,0.22c11.12,0,31.56-9.17,43.75-19.62l2.15-1.85
		l-0.71,2.75c-0.71,2.73-1.2,4.99-1.55,7.11c-2.73,16.45,0.48,30.7,9.53,42.33c0.91,1.17,2.25,1.81,3.78,1.81
		c1.61,0,3.29-0.66,6.01-1.95c1.56-0.74,3.18-1.51,4.46-1.66c0.17-0.02,0.34-0.03,0.49-0.03c0.82,0,1.05,0.27,1.6,0.92
		c1.54,1.81,3.26,2.86,7.49,2.86c4.4,0,10.94-4.09,16.26-10.17c4.27-4.88,11.42-15.38,11.32-30.87l-0.02-2.54l1.6,1.98
		c10.39,12.87,21.39,21.72,31.82,25.6c6.21,2.31,11.48,2.22,15.19-0.28c4.55-3.06,5.04-5.43,4.37-8.99
		c-0.32-1.71-0.63-3.33,0.79-5.6c1.13-1.82,2.45-2.19,4.09-2.19c0.38,0,0.73,0.02,1.04,0.04c0.31,0.02,0.75,0.04,1.16,0.04
		c0.62,0,1.92,0,2.95-0.96l0.07-0.07c0.88-0.87,1.32-2.26,1.38-4.38c0.55-17.7-8.98-31.37-17.07-39.72
		c-7.03-7.26-15.87-13.51-25.54-18.07l-2.39-1.13l2.58-0.55c7.95-1.69,20.8-6.27,36.9-18.53c15.6-11.88,19.1-22.76,19.28-29.8
		C1045.32,894.22,1042.75,889.91,1041.48,888.84z"/>
	<path class="st1" d="M1046.04,900.7c0.17-6.54-2.35-11.16-3.98-12.54c-4.18-3.5-7.09-3.86-11.12-4.36
		c-2.67-0.33-6.32-0.79-11.69-2.37c-0.13-0.04-0.26-0.07-0.39-0.1c-2.04-0.39-4.17-0.59-6.32-0.59c-14.59,0-28.16,8.92-35.62,14.88
		c5.91-17.52,8.43-35.72,4.61-49.47c-1.85-6.68-5.2-11.09-9.69-12.73c-1.97-0.73-3.45-1.05-4.8-1.05c-3.15,0-4.86,1.81-5.99,3
		c-1.17,1.23-2.09,2.21-4.42,2.37c-0.15,0.01-0.29,0.02-0.43,0.02c-1.72,0-2.39-0.76-3.52-2.5c-0.86-1.33-1.81-2.79-3.71-3.18
		c-0.11-0.02-0.22-0.04-0.34-0.05c-0.16-0.02-0.36-0.03-0.52-0.03c-1.28,0-2.64,0.52-4.3,1.65c-16.65,11.29-19.1,36.07-18.21,54.87
		c0.13,2.7,0.33,5.36,0.59,7.99c-11.81-16.77-27.9-33.47-42.16-36.11c-1.31-0.24-2.6-0.37-3.83-0.37c-3.74,0-7.17,1.13-10.18,3.37
		c-4.15,3.09-6.12,5.67-7.69,7.74c-1.4,1.84-2.25,2.95-4.08,3.72c-5.15,2.16-4.05,6.68-3.52,8.86c0.13,0.55,0.28,1.17,0.27,1.44
		c-0.02,0.55-1.6,1.77-2.54,2.49c-1.52,1.17-3.23,2.49-4.56,4.36c-3.13,4.43-3.08,10.33,0.17,16.61
		c5.98,11.58,22.09,23.93,44.27,31.08c-26.72,5.61-45.36,26.23-50.06,40.12c-3.63,10.7,0.96,15.95,5,20.59
		c2.37,2.71,4.82,5.51,5.92,9.5c0.74,2.67,2.89,4.38,6.21,4.96c0.9,0.16,1.9,0.24,2.95,0.24c11.76,0,32.61-9.79,44.33-19.84
		c-0.61,2.35-1.16,4.74-1.57,7.19c-2.77,16.71,0.5,31.18,9.7,43.02c1.08,1.39,2.67,2.16,4.48,2.16c1.78,0,3.55-0.69,6.4-2.04
		c1.5-0.71,3.05-1.45,4.18-1.58c0.14-0.02,0.26-0.02,0.38-0.02c0.41,0,0.41,0,0.92,0.6c1.67,1.96,3.61,3.17,8.16,3.17
		c4.64,0,11.45-4.21,16.93-10.47c4.59-5.24,11.64-15.87,11.54-31.46c9.67,11.97,20.88,21.66,32.2,25.88
		c3.08,1.15,5.96,1.73,8.55,1.73c2.86,0,5.37-0.71,7.45-2.1c4.93-3.32,5.48-6.04,4.75-9.89c-0.31-1.67-0.56-2.99,0.67-4.97
		c0.93-1.49,1.89-1.77,3.33-1.77c0.37,0,0.71,0.02,1.02,0.04c0.29,0.02,0.76,0.04,1.18,0.04c0.68,0,2.27,0,3.56-1.2
		c0.03-0.03,0.06-0.06,0.09-0.09c1.05-1.04,1.57-2.62,1.64-4.98c0.56-18.01-9.11-31.89-17.33-40.37
		c-7.28-7.51-16.21-13.73-25.8-18.26c7.85-1.67,20.88-6.23,37.25-18.69C1042.28,919.1,1045.85,907.94,1046.04,900.7z M952.55,946.51
		c-0.62,2.04-1.87,3.79-3.56,5c-0.24,0.18-0.49,0.31-0.73,0.46c-1.42,0.84-3.06,1.36-4.83,1.36c-5.28,0-9.58-4.3-9.58-9.57
		c0-3.89,2.34-7.22,5.67-8.72c0.13-0.06,0.26-0.11,0.39-0.16c1.09-0.43,2.27-0.69,3.52-0.69c5.28,0,9.57,4.3,9.57,9.58
		c0,0.55-0.07,1.08-0.16,1.6C952.78,945.75,952.67,946.13,952.55,946.51z M946.12,837.04c1.29-0.87,1.85-0.94,2-0.94
		c0.03,0,0.04,0,0.04,0c0.21,0.04,0.79,0.93,1.07,1.36c1.08,1.66,2.83,4.4,6.98,4.4c0.23,0,0.47-0.01,0.71-0.03
		c3.92-0.27,5.77-2.22,7.11-3.64c0.96-1.02,1.63-1.72,3.01-1.72c0.81,0,1.87,0.24,3.39,0.8c4.03,1.48,6.11,6.24,7.15,9.98
		c6.48,23.38-6.54,61.21-23.43,84.45c-0.49,0.67-0.99,1.33-1.49,1.98c-0.47-0.43-0.95-0.83-1.48-1.19c0.63-1.6,1.81-4.66,3.29-8.72
		c2.2-6,4.91-14.08,7.29-22.24c2.38-8.17,4.43-16.41,5.79-22.63c1.38-6.22,2.15-10.39,2.15-10.39s-1.02,4.12-2.77,10.23
		c-1.73,6.11-4.27,14.2-7.12,22.16c-2.85,7.96-6.02,15.8-8.55,21.6c-1.62,3.73-2.94,6.62-3.69,8.23c-0.2-0.06-0.42-0.11-0.63-0.17
		c0.11-1.9,0.31-5.17,0.63-9.27c0.49-6.66,1.32-15.55,2.26-24.43c0.95-8.88,1.99-17.75,2.78-24.41c0.79-6.66,1.31-11.09,1.31-11.09
		s-0.78,4.4-1.95,11c-1.17,6.6-2.72,15.4-4.17,24.23c-1.46,8.82-2.79,17.68-3.67,24.34c-0.54,4.06-0.93,7.28-1.15,9.19
		c-0.14,0-0.28,0.01-0.42,0.02c-0.3-1.41-0.94-4.59-1.64-8.81c-0.99-5.78-1.98-13.56-2.52-21.39c-0.53-7.83-0.61-15.7-0.42-21.6
		c0.17-5.9,0.49-9.83,0.49-9.83s-0.57,3.9-1.13,9.79c-0.58,5.89-1.01,13.79-0.99,21.71c0.03,7.92,0.52,15.85,1.14,21.77
		c0.29,2.95,0.61,5.46,0.84,7.16c0.12,0.91,0.22,1.59,0.28,2.05l0,0c-0.3,0.11-0.59,0.24-0.88,0.37c0,0,0,0,0,0
		c-1.15-2.89-2.55-7.56-3.87-13.31c-0.46-1.98-0.88-4.02-1.27-6.08c-0.04-0.2-0.08-0.39-0.12-0.59c-0.39-2.08-0.75-4.18-1.07-6.31
		c-0.8-5.3-1.41-10.98-1.68-16.74C928.87,870.58,931.04,847.27,946.12,837.04z M851.73,906.72c-1.77-3.43-3.29-8.36-0.46-12.36
		c0.97-1.37,2.36-2.44,3.71-3.47c2-1.53,4.06-3.12,4.14-5.62c0.03-0.83-0.18-1.66-0.39-2.53c-0.64-2.63-0.57-3.39,1.13-4.11
		c2.84-1.2,4.19-2.97,5.75-5.02c1.49-1.96,3.19-4.19,6.88-6.93c2.3-1.71,4.85-2.56,7.73-2.56c0.99,0,2.01,0.1,3.08,0.3
		c14.94,2.77,32.98,23.77,44.01,41.08c0.73,4.9,1.61,9.45,2.54,13.47c-1.07-1.53-2.3-3.16-3.57-4.79c-1.3-1.66-2.69-3.32-4.13-4.99
		c-1.47-1.65-2.99-3.29-4.57-4.88c-3.16-3.18-6.52-6.13-9.84-8.68c-1.65-1.29-3.31-2.44-4.9-3.51c-1.59-1.07-3.14-2-4.58-2.84
		c-2.9-1.66-5.41-2.85-7.18-3.64c-1.79-0.75-2.81-1.18-2.81-1.18s0.99,0.49,2.73,1.34c1.72,0.89,4.15,2.22,6.92,4.03
		c1.38,0.91,2.86,1.92,4.37,3.07c1.51,1.14,3.08,2.37,4.63,3.74c3.13,2.69,6.26,5.79,9.17,9.07c1.45,1.64,2.85,3.34,4.19,5.03
		c1.32,1.71,2.58,3.41,3.75,5.1c1.16,1.69,2.25,3.31,3.25,4.94c1.04,1.62,1.9,3.09,2.67,4.52c1.51,2.83,2.36,5.27,2.69,6.98
		c0.09,0.46,0.15,0.83,0.2,1.15c-0.91-1.05-2.06-2.3-3.46-3.71c-3.57-3.59-8.67-7.94-14.09-11.81
		c-10.78-7.76-22.28-14.29-22.28-14.29s10.95,7.43,21.01,15.94c5.04,4.2,9.68,8.82,12.82,12.51c1.57,1.84,2.81,3.45,3.6,4.57
		c0.31,0.43,0.55,0.77,0.75,1.07c-0.09,0.18-0.18,0.35-0.25,0.53c-0.36-0.1-0.75-0.2-1.19-0.32c-1.96-0.56-4.8-1.38-8.16-2.55
		c-3.35-1.17-7.21-2.68-11.26-4.52c-4.04-1.85-8.27-4.04-12.36-6.46c-4.1-2.41-8.06-5.07-11.65-7.74c-3.6-2.66-6.84-5.32-9.59-7.62
		c-5.49-4.63-9.08-7.81-9.08-7.81s3.41,3.37,8.66,8.29c2.63,2.45,5.74,5.28,9.22,8.16c3.47,2.88,7.33,5.79,11.36,8.46
		c4.02,2.68,8.19,5.13,12.22,7.24c4.03,2.1,7.9,3.85,11.26,5.24c3.25,1.33,6.01,2.3,8.03,2.99c-1.78-0.05-3.53-0.15-5.26-0.26
		c-1.1-0.07-2.19-0.16-3.29-0.26c-0.6-0.06-1.21-0.12-1.81-0.18c-1.13-0.12-2.26-0.26-3.38-0.41c-0.83-0.11-1.65-0.23-2.46-0.36
		c-0.88-0.14-1.77-0.28-2.64-0.43c-0.85-0.15-1.7-0.31-2.53-0.47c-0.35-0.07-0.7-0.15-1.05-0.22
		C877.14,933.04,857.58,918.06,851.73,906.72z M862.37,1010.99c-0.81,0-1.57-0.06-2.25-0.18c-2.52-0.44-2.83-1.58-2.95-2.01
		c-1.35-4.89-4.24-8.19-6.78-11.11c-3.95-4.53-7.08-8.11-4.21-16.57c5.11-15.08,27.39-36.82,56.03-38.67
		c2.42,0.56,4.92,1.03,7.45,1.46c0.34,0.06,0.68,0.11,1.02,0.17c1.17,0.19,2.34,0.37,3.53,0.52c1.08,0.15,2.16,0.28,3.26,0.4
		c0.7,0.08,1.4,0.14,2.11,0.21c1.07,0.1,2.14,0.18,3.22,0.26c0.4,0.03,0.79,0.07,1.19,0.1c-0.37,0.05-0.74,0.1-1.13,0.17
		c-5.24,0.82-12.02,2.63-18.5,5.18c-3.22,1.25-6.41,2.65-9.34,4.02c-2.93,1.38-5.63,2.73-7.93,3.91c-4.58,2.39-7.64,3.98-7.64,3.98
		s3.16-1.36,7.91-3.4c4.76-2,11.13-4.59,17.69-6.58c6.52-2.02,13.22-3.28,18.24-3.68c0.37-0.03,0.72-0.05,1.07-0.08
		c-0.51,0.26-1.02,0.53-1.56,0.82c-5.73,3.09-12.81,7.82-19.86,12.59c-7.04,4.79-13.95,9.74-19.13,13.47
		c-5.17,3.73-8.61,6.22-8.61,6.22s3.59-2.28,8.97-5.69c5.39-3.4,12.58-7.92,19.87-12.27c7.29-4.33,14.64-8.61,20.32-11.23
		c2.84-1.33,5.25-2.27,6.95-2.87c0.01-0.01,0.02-0.01,0.04-0.01c0,0.01,0.01,0.01,0.01,0.02c0.03,0.05,0.05,0.11,0.08,0.16
		c-3.35,3.14-7.56,8.38-11.65,14.98c-0.94,0.97-2.56,2.62-4.65,4.62c-3.38,3.27-8.1,7.43-13.07,11.31
		c-4.97,3.87-10.19,7.44-14.23,9.94c-4.03,2.51-6.8,4.05-6.8,4.05s2.89-1.3,7.12-3.49c4.24-2.17,9.77-5.33,15.1-8.83
		c4.03-2.64,7.94-5.48,11.21-8.02c-0.25,0.51-0.48,1.06-0.73,1.58c-1.53,3.13-3,6.51-4.32,10.11
		C901.59,997.37,874.88,1010.99,862.37,1010.99z M953.2,1034.58c-5.16,5.89-10.98,9.07-13.84,9.07c-3.57,0-4.28-0.84-5.04-1.73
		c-0.71-0.83-1.75-2.05-4.05-2.05c-0.27,0-0.56,0.02-0.86,0.05c-1.8,0.21-3.66,1.1-5.46,1.95c-2.21,1.05-3.66,1.64-4.63,1.64
		c-0.54,0-0.94-0.18-1.24-0.57c-13.03-16.75-11.25-37.16-5-54.47c0.13-0.22,0.25-0.46,0.34-0.71c1.11-3.09,2.42-6.15,3.83-9.16
		c1.98-4.1,4.11-7.9,6.23-11.28c0,0,0.03-0.02,0.03-0.02l-0.01-0.01c3.93-6.26,7.79-11.07,10.47-13.72
		c0.03,0.02,0.05,0.05,0.08,0.07c0.06,0.05,0.11,0.1,0.17,0.15c-0.25,0.42-0.55,0.92-0.93,1.57c-1.03,1.74-2.39,4.22-3.85,7.29
		c-2.95,6.14-6.07,14.64-8.18,23.38c-1.06,4.34-1.94,8.76-2.63,12.89c-0.69,4.14-1.2,8.01-1.59,11.34
		c-0.77,6.65-1.11,11.1-1.11,11.1s0.6-4.42,1.75-11c0.58-3.29,1.32-7.12,2.23-11.18c0.92-4.07,2.03-8.35,3.33-12.6
		c2.56-8.47,6.1-16.59,9.28-22.34c0.89-1.62,1.73-3.04,2.49-4.28c-0.03,0.19-0.06,0.36-0.1,0.56c-0.23,1.28-0.46,2.75-0.7,4.37
		c-0.99,6.43-1.91,15.03-2.21,23.66c-0.35,8.62-0.07,17.24,0.43,23.67c0.23,3.22,0.51,5.89,0.72,7.76c0.22,1.87,0.34,2.93,0.34,2.93
		s-0.06-1.07-0.16-2.95c-0.1-1.87-0.21-4.55-0.25-7.77c-0.11-6.43,0.12-15,0.98-23.51c0.81-8.51,2.23-16.94,3.57-23.17
		c0.33-1.55,0.64-2.98,0.95-4.26c0.15-0.64,0.29-1.23,0.42-1.78l0.04-0.16l0.03-0.09l0.04-0.12c0.51,1.34,1.22,3.19,2.06,5.41
		c1.74,4.62,4.15,10.74,6.31,16.91c2.17,6.18,3.99,12.47,4.93,17.3c0.5,2.41,0.8,4.44,1,5.86c0.17,1.43,0.27,2.24,0.27,2.24
		s-0.03-0.82-0.09-2.26c-0.09-1.44-0.23-3.49-0.54-5.95c-0.57-4.92-1.9-11.41-3.6-17.8c-0.96-3.63-2-7.22-2.96-10.53
		c4.5,10.97,10.41,21.12,16.95,29.94C965.48,1017.56,957.93,1029.18,953.2,1034.58z M1028.17,1008.38c-0.06,1.83-0.43,2.19-0.43,2.2
		c-0.08,0.07-0.4,0.1-0.76,0.1c-0.34,0-0.72-0.02-0.97-0.03c-0.37-0.02-0.79-0.04-1.23-0.04c-2.07,0-4.8,0.46-6.82,3.7
		c-2.08,3.34-1.58,5.97-1.22,7.9c0.41,2.19,0.62,3.28-3.01,5.72c-1.52,1.02-3.31,1.41-5.16,1.41c-2.48,0-5.03-0.7-7.12-1.47
		c-22.87-8.52-46-41.6-54.8-69c0.07,0.13,0.12,0.24,0.2,0.38c0.92,1.68,2.23,3.8,3.81,6.46c3.16,5.27,7.44,12.31,12.25,19
		c2.39,3.35,4.94,6.59,7.47,9.5c1.24,1.47,2.54,2.82,3.74,4.11c1.26,1.24,2.41,2.45,3.56,3.47c1.14,1.04,2.17,1.99,3.15,2.77
		c0.97,0.79,1.79,1.51,2.52,2.03c1.43,1.07,2.25,1.69,2.25,1.69s-0.78-0.66-2.14-1.82c-0.7-0.56-1.47-1.32-2.38-2.17
		c-0.92-0.83-1.89-1.85-2.96-2.95c-1.08-1.08-2.14-2.35-3.31-3.66c-1.11-1.35-2.3-2.76-3.44-4.29c-2.31-3.03-4.63-6.37-6.78-9.83
		c-4.32-6.89-8.11-14.11-10.92-19.54c-1.39-2.71-2.62-5.03-3.32-6.54c-0.32-0.68-0.52-1.2-0.66-1.59c0.62-0.32,1.22-0.7,1.78-1.11
		c0.96,1.05,2.82,3.06,5.32,5.65c3.67,3.84,8.69,8.83,13.88,13.63c5.19,4.8,10.53,9.41,14.63,12.75c4.09,3.36,6.88,5.51,6.88,5.51
		s-2.63-2.35-6.45-5.99c-3.83-3.63-8.81-8.6-13.6-13.73c-4.79-5.13-9.4-10.43-12.74-14.48c-2.42-2.92-4.21-5.16-5.02-6.19
		c0.02-0.02,0.03-0.04,0.05-0.07c1.09,0.52,3.5,1.66,6.62,3.25c4.33,2.19,10.02,5.31,15.58,8.68c5.55,3.37,10.96,7,14.93,9.85
		c3.97,2.84,6.55,4.84,6.55,4.84s-2.41-2.2-6.16-5.35c-3.74-3.16-8.87-7.22-14.19-11.05c-5.31-3.83-10.81-7.43-15.02-9.99
		c-3.04-1.86-5.35-3.2-6.41-3.81c0.28-0.78,0.48-1.6,0.61-2.44c3.49,0.11,7.06,0.54,10.63,1.22c0.73,0.14,1.47,0.3,2.2,0.47
		c0.36,0.08,0.72,0.16,1.08,0.24c0.84,0.2,1.69,0.42,2.53,0.65c0.22,0.06,0.44,0.12,0.66,0.18c0.94,0.27,1.89,0.55,2.83,0.85
		c0.06,0.02,0.13,0.04,0.19,0.06c1.02,0.33,2.04,0.68,3.05,1.05c0.02,0.01,0.04,0.01,0.05,0.01c11.86,4.34,23.16,11.42,31.85,20.39
		C1019.66,978.9,1028.69,991.8,1028.17,1008.38z M981.62,946.73c-4.41-1.61-8.89-2.86-13.38-3.71c0.59-0.19,1.19-0.39,1.8-0.6
		c1.62-0.55,3.38-1.17,5.12-1.86c3.56-1.39,7.26-3.1,10.81-5.01c7.13-3.83,13.7-8.46,18.59-11.94c4.87-3.51,8.12-5.84,8.12-5.84
		s-3.4,2.11-8.5,5.27c-5.11,3.13-11.96,7.28-19.19,10.54c-3.61,1.64-7.3,3.04-10.81,4.14c-1.78,0.53-3.51,1.04-5.14,1.53
		c-1.64,0.47-3.19,0.88-4.61,1.22c-2.86,0.69-5.24,1.09-6.84,1.21l0,0c0.03-0.05,0.08-0.13,0.13-0.22
		c4.53-3.26,15.17-10.94,25.65-18.84c13.85-10.39,27.41-21.14,27.41-21.14s-14.17,9.93-28.59,19.46
		c-7.02,4.67-14.09,9.23-19.5,12.69c2.48-3.65,5.74-7.98,9.34-12.13c4.11-4.72,8.59-9.14,12.14-12.25c1.76-1.57,3.28-2.83,4.35-3.69
		c1.08-0.86,1.69-1.36,1.69-1.36s-0.65,0.44-1.79,1.22c-1.14,0.78-2.76,1.91-4.65,3.34c-3.81,2.83-8.68,6.89-13.23,11.34
		c-4.55,4.44-8.75,9.25-11.7,13.04c-1.36,1.71-2.48,3.23-3.27,4.33c-0.09-0.17-0.18-0.33-0.27-0.49c0.17-0.22,0.33-0.45,0.51-0.67
		c0.04-0.04,0.08-0.08,0.12-0.12c0.57-0.75,1.14-1.52,1.71-2.3c7.05-9.6,12.63-20.1,16.75-30.61c2.54-2.45,19.81-18.42,38.15-18.42
		c1.84,0,3.7,0.16,5.55,0.51c5.7,1.68,9.54,2.16,12.34,2.51c3.82,0.48,5.74,0.71,8.97,3.43c0.42,0.36,2.68,3.6,2.53,9.3
		c-0.17,6.34-3.43,16.23-18.02,27.33C1000.35,945.87,984.02,946.72,981.62,946.73z"/>
</g>
</svg>
