<?xml version="1.0" encoding="utf-8"?>
<!-- Generator: Adobe Illustrator 26.0.1, SVG Export Plug-In . SVG Version: 6.00 Build 0)  -->
<svg version="1.1" id="Layer_1" xmlns="http://www.w3.org/2000/svg" xmlns:xlink="http://www.w3.org/1999/xlink" x="0px" y="0px"
	 viewBox="0 0 2000 2000" style="enable-background:new 0 0 2000 2000;" xml:space="preserve">
<style type="text/css">
	.st0{fill:#948389;}
	.st1{fill:#C4A952;}
</style>
<g>
	<g>
		<path class="st0" d="M940.96,970.48l-0.71-0.65c-2.23-2.05-3.31-4.83-2.96-7.64c0.31-2.47,1.65-4.69,3.77-6.24
			c2.13-1.55,4.77-2.25,7.46-1.97c2.69,0.28,5.1,1.52,6.79,3.47c0.85,0.99,1.47,2.1,1.83,3.27c0.35,1.15,0.46,2.37,0.31,3.59
			c-0.31,2.47-1.65,4.69-3.77,6.25c-2.13,1.55-4.78,2.25-7.46,1.97c-0.91-0.1-1.84-0.35-2.92-0.78l-1.3-0.52l-2.91,4.44
			L940.96,970.48z"/>
		<path class="st0" d="M1030.68,835.8l-0.73,0.15c-1.2,0.25-2.29,0.31-3.33,0.21c-5.56-0.59-9.57-5.23-8.92-10.34
			c0.31-2.47,1.65-4.69,3.77-6.24c2.13-1.55,4.78-2.25,7.47-1.97c5.56,0.59,9.56,5.23,8.92,10.34c-0.34,2.72-2.01,5.17-4.58,6.71
			l-1.32,0.79l1.53,2.3L1030.68,835.8z"/>
		<path class="st0" d="M1067.15,840.57l-0.78-0.76l-4.65,1.84l3.94-2.79l-0.52-1.07c-0.89-1.82-1.23-3.88-0.98-5.92
			c0.72-5.73,5.82-9.92,11.38-9.33c4.06,0.43,7.26,3.29,8.41,7.03c0.42,1.38,0.57,2.88,0.38,4.43c-0.35,2.78-1.73,5.29-3.89,7.05
			c-2.15,1.75-4.81,2.56-7.49,2.28C1070.75,843.09,1068.75,842.14,1067.15,840.57z"/>
		<path class="st0" d="M1014.23,816.25c-0.35,2.83-2.11,5.34-4.83,6.86l-1.24,0.7l0.18,0.35l11.27,21.93l-12.74-21.91l-1.14,0.17
			c-1.05,0.16-1.92,0.19-2.75,0.1c-2.69-0.28-5.1-1.52-6.79-3.47c-1.69-1.95-2.45-4.4-2.14-6.86c0.31-2.47,1.65-4.69,3.77-6.25
			c2.13-1.55,4.78-2.25,7.47-1.97C1010.86,806.5,1014.87,811.15,1014.23,816.25z"/>
		<path class="st0" d="M978.58,890.34c-0.26,2.1-1.31,4.03-3.02,5.57l-0.8,0.71l1.49,3.18l-2.49-2.53l-1.08,0.46
			c-1.71,0.72-3.56,1-5.35,0.81c-5.56-0.59-9.56-5.22-8.92-10.34c0.64-5.11,5.68-8.8,11.24-8.21
			C975.21,880.59,979.22,885.24,978.58,890.34z"/>
		<path class="st0" d="M1066.92,809.5l-1.09-1.02l-2.84,2.38l2.2-3.46l-0.33-0.7c-0.75-1.57-1.03-3.18-0.83-4.79
			c0.31-2.47,1.65-4.69,3.77-6.25c2.13-1.55,4.78-2.25,7.46-1.97c4.21,0.45,7.53,3.21,8.61,6.75c0.35,1.13,0.47,2.35,0.31,3.59
			c-0.31,2.47-1.65,4.69-3.77,6.25c-2.13,1.55-4.78,2.25-7.46,1.97C1070.68,812.02,1068.6,811.07,1066.92,809.5z"/>
		<path class="st0" d="M1082.99,956.87l-0.97,4.82l-0.28-4.97l-1.1-0.3c-4.74-1.29-7.76-5.49-7.2-9.99
			c0.64-5.11,5.68-8.8,11.24-8.21c2.69,0.28,5.1,1.52,6.79,3.47c1.68,1.96,2.45,4.39,2.14,6.87c-0.55,4.45-4.49,7.91-9.36,8.23
			L1082.99,956.87z"/>
		<path class="st0" d="M1010.1,971.21c-3.97-0.42-5.66-1.21-5.73-1.24l-0.49-0.23l0.12-0.39c1.56-10.63,9.23-12.79,27.74-17.99
			c10.8-3.03,15.3-6.69,15.49-6.84l1.28-1.06l-0.16,1.57c-0.1,0.94-2.64,23.1-21.52,25.61
			C1020.32,971.5,1014.69,971.69,1010.1,971.21z"/>
		<path class="st0" d="M1127.31,960.41l-0.65-0.86c-2.44-3.19-2.49-7.64-0.14-11.32c1.54-2.4,3.9-4.17,6.63-4.98
			c1.43-0.42,2.86-0.56,4.25-0.41c1.29,0.14,2.51,0.52,3.63,1.12c2.09,1.13,3.59,2.97,4.29,5.22c0.07,0.24,0.14,0.5,0.2,0.75
			c0.57,2.61,0.04,5.37-1.51,7.79c-2.38,3.72-6.66,5.83-10.91,5.38c-1.27-0.14-2.5-0.51-3.55-1.08l-1.31-0.77l-6.01,5.72
			L1127.31,960.41z"/>
		<path class="st0" d="M1081.49,969.12l0.44-0.08l0.62-0.02c0.6-0.02,1.09-0.04,1.58,0.02c2.69,0.28,5.1,1.52,6.79,3.47
			c0.85,0.99,1.47,2.1,1.83,3.27c0.35,1.15,0.46,2.37,0.31,3.6c-0.64,5.11-5.68,8.8-11.24,8.21c-1.08-0.12-2.16-0.42-3.29-0.93
			l-1.04-0.47l-8.84,8.14l7.76-8.84l-0.92-0.94c-1.97-2.01-2.92-4.67-2.59-7.29c0.5-4.02,3.78-7.26,8.15-8.04L1081.49,969.12
			L1081.49,969.12L1081.49,969.12z"/>
		<polygon class="st0" points="1081.49,969.13 1081.49,969.13 1081.49,969.12 		"/>
		<path class="st0" d="M1040.35,997.21l-1.16-0.75c-3.04-1.99-4.67-5.3-4.25-8.64c0.64-5.11,5.68-8.8,11.24-8.21
			c2.69,0.28,5.1,1.52,6.78,3.47c0.85,0.99,1.47,2.1,1.83,3.27c0.35,1.15,0.46,2.37,0.31,3.59c-0.64,5.12-5.68,8.8-11.24,8.21
			c-0.28-0.03-0.55-0.1-0.82-0.16l-1.47-0.33l-6.14,8.13L1040.35,997.21z"/>
		<path class="st0" d="M1027.91,773.94c-0.23,1.87-1.24,3.6-2.82,4.86l-0.76,0.6l1.17,4.22l-2.23-3.6l-1.23,0.33
			c-1.06,0.29-2.16,0.38-3.27,0.26c-2.19-0.23-4.15-1.24-5.53-2.83c-1.37-1.59-1.99-3.58-1.74-5.59c0.52-4.17,4.63-7.16,9.15-6.68
			C1025.17,766,1028.43,769.78,1027.91,773.94z"/>
		<path class="st0" d="M923.03,963.81c-0.77,0.04-1.49,0.03-2.18-0.04c-3.77-0.4-7.07-2.39-8.82-5.31l-0.25-0.41l-0.43,0.26
			c-0.37,0.22-0.76,0.45-1.17,0.64l-0.34,0.16l1.29,4.8l-1.85-5.62l-1.5,0.35c-1.25,0.29-2.48,0.38-3.65,0.26
			c-2.69-0.28-5.1-1.52-6.78-3.47c-1.69-1.96-2.45-4.4-2.14-6.86c0.44-3.55,3.02-6.5,6.73-7.71l1.46-0.47l-6.36-19.35l-1.28,0.07
			c-0.72,0.04-1.27,0.04-1.78-0.02c-2.69-0.28-5.1-1.52-6.79-3.47c-1.69-1.95-2.44-4.39-2.14-6.86c0.64-5.11,5.68-8.8,11.24-8.21
			c2.69,0.28,5.1,1.52,6.79,3.47c1.68,1.96,2.45,4.39,2.14,6.87c-0.4,3.18-2.53,5.92-5.71,7.33l-1.19,0.52l5.34,19.65l1.3-0.05
			c2.33-0.07,4.72,0.64,6.55,1.97l4.66,3.37l-2.15-5.08c-0.71-1.71-0.98-3.58-0.75-5.42c0.35-2.78,1.73-5.29,3.89-7.05
			c2.15-1.75,4.81-2.56,7.49-2.28c2.68,0.28,5.07,1.63,6.73,3.78c1.67,2.17,2.4,4.9,2.05,7.68c-0.41,3.27-2.25,6.14-5.06,7.86
			l-1.9,1.17l1.83,1.27c2.76,1.9,4.18,4.77,3.82,7.68c-0.36,2.89-2.43,5.38-5.54,6.66l-1.13,0.46l2.4,13.99l-4.46-12.59
			L923.03,963.81z"/>
		<path class="st0" d="M1071.77,1016.57c1.3-0.26,2.61-0.32,3.89-0.19c4.9,0.52,8.89,3.67,10.21,7.98c0.08,0.26,0.15,0.52,0.21,0.79
			l-1.21,4.6c-1.29,4.9-6.37,8.16-11.82,7.59c-2.88-0.3-5.47-1.63-7.28-3.73c-1.81-2.11-2.62-4.72-2.29-7.37
			c0.37-3.01,2.2-5.68,5-7.32l1.53-0.89l-3.57-4.08l5.16,2.65L1071.77,1016.57z"/>
		<polygon class="st0" points="1003.01,1125.9 1003.01,1125.9 1003.01,1125.9 		"/>
		<path class="st0" d="M990.74,888.29c-1.85-1.02-3.37-2.56-4.39-4.45l-0.87-1.62l-0.14,9.43l-2.05-26.92l-1.29-0.18
			c-5.45-0.74-9.23-5.25-8.6-10.27c0.31-2.47,1.65-4.69,3.77-6.24c2.13-1.55,4.78-2.25,7.47-1.97c2.69,0.28,5.1,1.52,6.78,3.47
			c1.69,1.96,2.45,4.4,2.14,6.86c-0.48,3.86-3.59,7.06-7.73,7.98l-1.23,0.27l-0.21,13.95l3.15-5.54c2.08-3.65,6.02-5.74,10.05-5.32
			c5.56,0.59,9.5,5.74,8.78,11.46c-0.35,2.79-1.73,5.29-3.91,7.04c-2.17,1.75-4.89,2.55-7.66,2.26l-1.39-0.19l-3.61,11.08
			l1.19-10.97L990.74,888.29z"/>
		<path class="st0" d="M1003.49,1125.45c-0.02,0.1-0.01,0.2-0.01,0.3l0,0.14c0,0.12,0,0.24,0,0.36l-0.1,2.69l-2.43-1.51
			c-1.01-0.63-2.15-1.05-3.37-1.24l-1.02-0.08c-3.8-0.13-7.38,2.17-8.92,5.74l-0.6,1.4l-1.51-0.57c-1-0.37-1.85-0.59-2.66-0.67
			c-2.69-0.28-5.34,0.41-7.46,1.97s-3.47,3.77-3.77,6.24c-0.25,2,0.23,4.01,1.39,5.8l1.23,1.89l-2.38,0.34
			c-0.49,0.07-1,0.14-1.47,0.28l-1.72,0.49l-0.35-1.63c-3.63-17.12-5.78-34.23-6.41-50.9c0.45-10.31,6.24-24.25,15.49-37.3
			l0.48-0.56c0.28-0.34,0.63-0.74,1.03-1.15l0.46-0.46c0.53-0.55,1.07-1.08,1.73-1.62c0.42-0.4,0.96-0.82,1.52-1.2
			c0.57-0.44,1.19-0.84,1.81-1.19c1.39-0.85,3.46-1.86,6.2-2.51c-1.1,0.19-2.2,0.46-3.3,0.81l-5.43,1.73l3.65-4.08
			c14.59-16.37,32.66-27.31,50.87-30.82l1.74-0.34l0.2,1.63c0.59,4.81,4.65,8.56,9.88,9.11c2.98,0.32,5.92-0.46,8.27-2.18
			c2.36-1.72,3.84-4.17,4.18-6.92c0.16-1.27,0.06-2.55-0.31-3.81l-0.4-1.41l5.41-1.44l0.78,0.89l6.48-1.73l18.1,8.03l-0.51,0.44
			c-1.56,1.34-2.67,3.04-3.22,4.93l0.97,4.46c0.87,3.99,4.39,6.99,8.74,7.46c4.04,0.43,7.96-1.4,9.98-4.66l0.82-1.32l1.42,0.78
			c1.21,0.67,2.51,1.08,3.89,1.23c5.77,0.61,11.05-3.66,11.78-9.51c0.36-2.84-0.41-5.62-2.14-7.84c-1.73-2.21-4.21-3.58-6.99-3.88
			c-1.43-0.15-2.86,0-4.25,0.44l-2.43,0.77l0.1-0.82l-6.29,0.25l4.13,1.05l-0.55,0.53c-1.23,1.17-2.18,2.56-2.82,4.14l-0.18,0.44
			l-0.47-0.2c-1.24-0.54-2.4-0.86-3.55-0.98c-1.46-0.15-2.93-0.04-4.36,0.33l-0.14,0.04l-5.4-1.57l0.23-0.85l0.18,0.03
			c0.17,0.03,0.35,0.06,0.53,0.08c3.54,0.37,6.99-0.69,9.58-2.93l-1.07,0.04l1.84-2.45c1.02-1.36,1.64-2.88,1.84-4.52
			c0.04-0.33,0.06-0.66,0.07-0.96l-0.03-0.97c-0.22-2.61-1.6-5.1-3.78-6.82l-1.16-0.91l3.68-4.51l1.17,0.48
			c1.1,0.44,2.12,0.71,3.11,0.82c5.56,0.59,10.56-2.76,11.14-7.46c0.35-2.83-0.98-5.65-3.54-7.51l-0.94-0.56
			c-1.44-0.84-2.96-1.35-4.54-1.52c-5.56-0.59-10.56,2.76-11.15,7.46c-0.3,2.4,0.66,4.84,2.64,6.71l0.97,0.91l-3.77,4.62l-1.12-0.36
			c-3.14-1.01-6.55-0.66-9.34,0.95c-2.84,1.64-4.68,4.32-5.06,7.35c-0.1,0.79-0.09,1.62,0.04,2.48l0.19,1.27l-21.37,5.7l-0.32,0.09
			l-0.67-0.86c-0.93-1.2-2.1-2.19-3.44-2.91l-0.95-0.45c-1.11-0.48-2.27-0.78-3.45-0.9c-5.5-0.58-10.72,2.7-12.14,7.63l-0.26,0.9
			l-1,0.18c-2.67,0.47-5.42,1.12-8.17,1.95l-2.03,0.63c-18.74,6.19-37.23,20.42-50.75,39.06l-0.21,0.28
			c-4.73,6.57-8.52,13.26-11.27,19.9l-3.4,8.22l0.27-8.79c1.03-33.67,8.5-66.01,22.23-96.17c1.24-1.94,2.61-3.6,4.17-5.04l-2.76,1.8
			l2.52-5.05c12.5-24.99,29.58-48.77,50.78-70.68c0.14-0.14,3.53-3.46,8.68-8.15c2.59-2.36,5.24-4.65,7.88-6.81l0.57-0.47l0.76,0.11
			c33.44,4.81,61.62-0.86,77.31-15.54c8.3-7.77,12.05-17.59,10.27-26.94l-0.12-0.64l-0.69,0.15c-8.63,1.84-16.26,3.24-22.99,4.48
			l-0.17,0.03c-31.94,5.87-46.51,8.56-64.26,37.56l-1,1.48l-0.11,0.11c-2.66,1.96-5.3,4-7.85,6.07c-1.84,1.5-3.44,2.82-4.79,3.96
			l-3.13,2.61l4.38-40.21l1.34-0.11c5.28-0.42,9.54-4.24,10.15-9.08c0.22-1.75-0.06-3.54-0.8-5.15l-0.56-1.05
			c-1.27-2.08-3.29-3.69-5.66-4.55l-1.37-0.4c-2.94-0.7-6.12-0.23-8.68,1.26l-1.2,0.81c-2.23,1.71-3.64,4.1-3.96,6.72
			c-0.63,5.05,2.78,9.7,8.1,11.07l1.31,0.34l-4.54,41.68l-0.35,0.36c-15.81,16.41-29.41,33.97-40.42,52.2l-3.26,5.39l0.22-6.16
			c0.46-12.98-3.17-27.38-4.3-31.49l-0.33-1.21l1.24-0.51c3.34-1.37,5.57-4.14,5.98-7.42c0.53-4.19-2.12-8.2-6.45-9.74l-1.4-0.5
			l0.29-0.9l-0.31-0.07c-0.31-0.07-0.61-0.15-0.93-0.18c-0.47-0.05-0.97-0.06-1.56-0.04l0.07,0.98l-1.45,0.22
			c-1.49,0.23-2.87,0.75-4.08,1.52l-1.08,0.79c-1.84,1.54-3,3.59-3.28,5.79c-0.65,5.11,3.36,9.75,8.92,10.34
			c0.38,0.04,0.75,0.03,1.16,0.02l1.55-0.03l0.31,1.15c1.39,5.12,8,31.33,1.53,44.57l-0.47,0.94c-3.52,6.68-6.74,13.52-9.59,20.33
			l-0.17,0.38c-0.25,0.59-0.45,1.08-0.6,1.45l-0.38,1c-5.9,14.59-10.41,29.78-13.41,45.14l-1.36,6.96l-1.81-6.88
			c-5.16-19.64-19.93-33.91-24.34-37.81l-0.97-0.86l0.74-1.04c0.91-1.27,1.46-2.63,1.63-4.03c0.41-3.25-1.07-6.42-3.95-8.44
			l-0.99-0.65c-1.2-0.65-2.49-1.07-3.83-1.23l-1.39-0.15l-0.16-0.93c-3.29,0.06-6.32,1.41-8.42,3.74l0.83,0.53l-0.81,1.2
			c-0.8,1.2-1.29,2.48-1.46,3.8c-0.08,0.6-0.09,1.23-0.03,1.85l0.17,1.81l-4.71-0.49l-0.38-0.75c-1.4-2.72-4.04-4.54-7.06-4.87
			c-5.05-0.53-9.67,3.2-10.31,8.31c-0.64,5.09,2.95,9.71,8,10.24c1.35,0.14,2.74-0.05,4.13-0.56l3.62-1.34l-1.53,3.3
			c-0.43,0.94-0.68,1.74-0.77,2.53c-0.31,2.47,0.45,4.9,2.14,6.87c1.69,1.95,4.1,3.19,6.79,3.47c5.22,0.55,10.08-2.76,11.07-7.53
			l0.35-1.68l0.99,0.31c0.18-4.39-2.6-8.27-6.8-9.92c-0.1-0.03-0.2-0.08-0.3-0.11c-0.9-0.32-1.86-0.55-2.87-0.66
			c-1.9-0.2-3.81,0.07-5.68,0.8l-1.09,0.43l0.46-1c0.51-1.1,0.82-2.11,0.94-3.09c0.08-0.62,0.06-1.24,0.04-1.76l-0.02-0.51
			l3.02,0.31l0.12,0.19c1.24,2.02,3.16,3.58,5.4,4.46c0.12,0.04,0.25,0.09,0.37,0.14c0.88,0.31,1.8,0.52,2.74,0.63
			c2.67,0.28,5.29-0.33,7.59-1.76l0.32-0.2l0.28,0.25c2.13,1.92,7.68,7.2,13.05,14.83l0.59,0.85l-12.12-1.98l15.26,4.75l0.3,0.5
			c7.31,12.03,10.41,24.04,9.22,35.72l-0.07,1.06c-1.51,13.18-2.02,26.81-1.5,40.52l0.04,0.88c0.5,12.11,1.8,24.5,3.87,36.83
			l1.62,9.66l-4.68-8.78c-1.06-1.99-2.34-4.36-3.8-6.86c-1.18-2.02-2.41-4.01-3.66-5.96c1.18,2.01,2.33,4.05,3.42,6.08
			c1.49,2.78,2.74,5.36,3.88,7.72c1.79,3.82,3.49,7.81,5.05,11.84l0.78,2.12l-0.74,0.66c-1.74,1.55-2.8,3.48-3.06,5.6
			c-0.57,4.51,2.63,8.83,7.43,10.03l0.91,0.23l0.23,0.84c5.69,20.57,13.39,40.92,22.84,60.49c0.33,0.76,0.61,1.37,0.83,1.84
			l0.58,1.04c4.72,9.53,8.88,16.86,11.6,21.42l1.17-0.6c-2.99-5.01-7.54-13.05-12.62-23.5c-3.33-7.65-13.15-34.74,0.62-62.03
			l0.28-0.56l0.63-0.22c2.38-0.81,4.33-2.38,5.5-4.42l4.32-7.59l-1.33,8.83l0,0c-0.66,5.68,3.28,10.75,8.8,11.34
			c5.56,0.59,10.66-3.6,11.38-9.34c0.15-1.21,0.09-2.45-0.19-3.66l-0.42-1.84l2.05,0.05c5.26,0.13,9.63-3.09,10.18-7.47
			c0.29-2.26-0.49-4.51-2.19-6.32c-1.71-1.82-4.13-2.98-6.82-3.27c-1.89-0.2-3.81,0.08-5.58,0.79l-1.87,0.77l-0.38-1.85
			c-0.38-1.89-1.2-3.65-2.36-5.12l-0.97-1.24l1.36-0.86c2.44-1.55,4.03-3.95,4.36-6.59c0.2-1.58-0.08-3.18-0.8-4.73l-0.61-1.1
			c-1.66-2.53-4.39-4.18-7.51-4.51c-2.69-0.28-5.34,0.42-7.46,1.97C1005.13,1120.76,1003.79,1122.97,1003.49,1125.45z
			 M984.03,1160.91l0.46,0.76c1.77,2.94,4.98,4.92,8.54,5.31l0.75,0.03l-0.26,0.58c-5.04,10.99-7.08,22.91-6.08,35.43l0.25,3.13
			l-1.17-2.94c-3.55-8.93-6.75-18.03-9.55-27.15c-0.8-2.61-1.57-5.21-2.3-7.82l-0.13-0.47l0.52-0.07c3.8-0.52,7.01-2.76,8.59-5.99
			L984.03,1160.91z M1080.92,1009.75l0.18,0.31c1.23,2.05,3.09,3.66,5.37,4.66l-0.35,0.81l-12.83-3.75L1080.92,1009.75z"/>
		<path class="st0" d="M997.72,1111.8l-0.33-8.2l-1.32-0.18c-5.42-0.76-9.18-5.27-8.55-10.26c0.31-2.47,1.65-4.69,3.77-6.24
			c2.13-1.55,4.77-2.25,7.46-1.97c2.69,0.28,5.1,1.52,6.78,3.47c1.69,1.96,2.45,4.4,2.14,6.86c-0.49,3.9-3.64,7.12-7.86,8
			l-1.13,0.24l-0.04,0.31L997.72,1111.8z"/>
		<path class="st0" d="M1050.01,813.04c2.94-0.21,5.53,0.63,7.7,2.51l0.94,0.9c1.74,1.95,2.55,4.43,2.23,6.95
			c-0.57,4.55-4.61,8.01-9.61,8.22l-1.02,0.04l-1.38,3.04l0.16-3.13l-1.2-0.34c-4.67-1.32-7.66-5.51-7.1-9.97
			c0.33-2.68,1.96-5.1,4.46-6.64l1.46-0.9l-0.67-0.77c0.68-0.29,1.44-0.52,2.3-0.69l0.02,0.9L1050.01,813.04z"/>
		<path class="st0" d="M1049.55,774.1l0.21,0.09c4.14,1.66,6.58,5.52,6.07,9.58c-0.44,3.55-3.13,6.59-6.85,7.75l-1.12,0.35
			l0.3,14.69l-2.56-13.5l-0.38-0.02c-0.12-0.01-0.24,0-0.36,0c-0.13,0-0.26,0.01-0.39-0.01c-0.24-0.03-0.46-0.08-0.69-0.13
			c-0.14-0.03-0.27-0.06-0.41-0.09l-0.85-0.17l0.3,0.75c0.54,1.31,0.73,2.67,0.57,3.98c-0.26,2.05-1.34,3.97-3.06,5.39l-0.26,0.22
			l3.76,7.51l-6.23-7.18l-1.06,0.3c-1.14,0.33-2.29,0.44-3.43,0.32c-2.19-0.23-4.15-1.24-5.52-2.83c-1.37-1.59-1.99-3.58-1.74-5.59
			c0.22-1.78,1.16-3.45,2.66-4.71l1.04-0.74c1.64-1,3.53-1.44,5.45-1.24l2.91,0.3l-1.26-2.43c-0.83-1.6-1.16-3.35-0.95-5.06
			c0.64-5.12,5.68-8.8,11.24-8.21c0.22,0.02,0.42,0.07,0.63,0.12l0,0l1.52,0.33l0.47,0.2l0.01,0.05L1049.55,774.1z"/>
		<path class="st0" d="M1134.68,1010.24l0.1-1.31l-11.72-2.12l12.12,0.96l0.48-0.92c1.89-3.58,6.01-5.68,10.25-5.23
			c2.69,0.28,5.1,1.52,6.79,3.47c1.68,1.95,2.45,4.4,2.14,6.86c-0.31,2.47-1.65,4.69-3.77,6.25c-2.13,1.55-4.78,2.25-7.46,1.97
			C1138.23,1019.59,1134.3,1015.25,1134.68,1010.24z"/>
		<path class="st0" d="M1033.32,1117.25l-0.86-0.85l-3.67,1.86l3.02-2.84l-0.41-0.91c-0.7-1.55-0.96-3.1-0.76-4.63
			c0.64-5.12,5.68-8.8,11.24-8.21c4.21,0.45,7.53,3.21,8.61,6.75c0.35,1.13,0.47,2.35,0.31,3.59c-0.64,5.11-5.68,8.8-11.24,8.21
			C1037.17,1119.95,1035.01,1118.93,1033.32,1117.25z"/>
		<path class="st0" d="M884.42,1067.57c34.38,3.64,47.12,11.36,50.5,30.56l0.08,0.46l-0.69,0.3c-1.95,0.85-13,4.92-39.69,2.1
			c-13.88-1.47-26.53-10.31-36.59-25.58c-7.31-11.09-10.74-21.63-11.11-22.79l-0.8-2.6l1.95,2.02
			C848.18,1052.18,860.75,1065.08,884.42,1067.57z"/>
		<path class="st0" d="M1051.49,747.28c2.69,0.28,5.1,1.52,6.79,3.47c1.69,1.96,2.45,4.39,2.14,6.87c-0.55,4.43-4.47,7.89-9.31,8.23
			l-1.31,0.09l-0.46,3.11l-0.76-3.29l-0.95-0.24c-4.85-1.24-7.95-5.45-7.38-10.02C1040.89,750.37,1045.93,746.69,1051.49,747.28z"/>
		<path class="st0" d="M1028.84,1063.67c-15.1-5.71-18.83-10.86-18.98-11.08l-0.41-0.6l0.7-0.29c8.59-3.59,17.05-6.24,33.58-2.33
			c11.35,2.69,17.15,8.71,17.4,8.97l0.45,0.47l-0.52,0.4c-0.42,0.32-10.43,7.87-23.93,6.44
			C1034.32,1065.36,1031.54,1064.69,1028.84,1063.67z"/>
		<ellipse class="st0" cx="871.57" cy="949.54" rx="8.4" ry="8.56"/>
		<ellipse class="st0" cx="883.82" cy="983.15" rx="11.57" ry="11.17"/>
		<ellipse class="st0" cx="901.18" cy="973.3" rx="7.72" ry="8.51"/>
	</g>
	<path class="st1" d="M1146.11,1000.13c-5.1-0.54-9.77,2.04-11.89,6.06l-30.11-2.37c-0.26-3.09-1.87-5.89-4.34-7.84l2-2.44
		c1.11,0.45,2.3,0.8,3.58,0.93c6.45,0.68,12.25-3.25,12.94-8.77c0.43-3.47-1.26-6.75-4.18-8.87l14.4-13.69
		c0.06,0.04,0.11,0.09,0.17,0.12c1.33,0.72,2.77,1.15,4.24,1.3c4.7,0.5,9.72-1.78,12.49-6.11l0,0c3.64-5.68,2.05-12.76-3.55-15.79
		c-2.74-1.48-6.01-1.79-9.2-0.84c-3.12,0.92-5.79,2.93-7.53,5.65c-2.75,4.3-2.5,9.39,0.2,12.93l-12.26,15.8
		c-1.53-0.89-3.28-1.53-5.23-1.74c-6.45-0.68-12.25,3.25-12.94,8.77c-0.37,3,0.87,5.83,3.09,7.92l-2.22,2.72
		c-0.86-0.28-1.76-0.48-2.7-0.58c-6.85-0.72-13.07,3.82-13.85,10.12c-0.12,0.97-0.09,1.92,0.04,2.85l-19.25,5.13
		c-1.05-1.35-2.39-2.49-3.97-3.34l21.79-20.06c1.18,0.53,2.44,0.93,3.82,1.07c6.45,0.68,12.29-3.59,13.03-9.52
		s-3.9-11.31-10.35-11.99c-0.62-0.07-1.23-0.05-1.84-0.02l1.87-9.26c5.54-0.36,10.2-4.29,10.85-9.55
		c0.74-5.93-3.9-11.31-10.35-11.99c-6.45-0.68-12.29,3.59-13.03,9.52c-0.66,5.29,2.98,10.12,8.35,11.59l0.55,9.89
		c-4.89,0.88-8.85,4.54-9.44,9.34c-0.4,3.21,0.81,6.23,3,8.46l-19.32,22.01c-1.22-0.52-2.54-0.88-3.95-1.03
		c-6.42-0.68-12.28,3.14-13.89,8.73c-2.83,0.5-5.62,1.17-8.37,1.99l13.52-17.89c0.47,0.1,0.92,0.23,1.41,0.28
		c6.45,0.68,12.29-3.59,13.03-9.52c0.74-5.93-3.9-11.31-10.35-11.99c-6.45-0.68-12.29,3.59-13.03,9.52
		c-0.51,4.06,1.54,7.81,4.92,10.03l-11.57,20.21c-20.92,6.91-39.24,22.66-51.54,39.63c-0.16,0.15-0.26,0.26-0.26,0.26l0.04,0.03
		c-4.83,6.71-8.7,13.59-11.44,20.19c0.94-30.55,7.25-62.98,22.08-95.58c1.32-2.06,3.1-4.17,5.51-5.99c1.4-1.1,3.02-2.07,4.76-2.93
		c1.74-0.86,3.6-1.61,5.52-2.24c0.43-0.15,0.88-0.27,1.32-0.4l0.95,0.44c0.35,0.16,2.24,0.97,6.28,1.39
		c3.73,0.39,9.28,0.47,17.15-0.58c20.09-2.66,22.8-25.95,22.9-26.94l0.56-5.36l-4.37,3.59c-0.04,0.03-4.48,3.61-14.88,6.53
		c-18.65,5.24-27.18,7.64-28.86,19.16c-0.55,0.12-1.11,0.24-1.66,0.38c-2.05,0.51-4.07,1.15-6.01,1.94
		c-1.85,0.75-3.62,1.65-5.22,2.69c11.81-23.64,28.23-47.29,50.51-70.3l0.02-0.02c0.59-0.58,3.82-3.73,8.6-8.07
		c2.26-2.06,4.91-4.38,7.82-6.76c2.16,0.31,4.31,0.58,6.43,0.8c31.15,3.29,57.26-2.71,72.29-16.78
		c8.67-8.12,12.58-18.41,10.71-28.24l-0.42-2.19l-2.36,0.5c-8.64,1.84-16.33,3.25-23.11,4.5c-32.44,5.97-47.25,8.69-65.35,38.27
		l-0.72,1.17c-2.93,2.15-5.61,4.25-7.91,6.12c-1.85,1.5-3.46,2.83-4.81,3.97l3.83-35.12c5.94-0.47,10.91-4.74,11.62-10.4
		c0.26-2.09-0.1-4.11-0.93-5.92l10.26-4.06c1.78,1.74,4.12,2.93,6.79,3.21c6.45,0.68,12.36-4.09,13.17-10.64
		c0.82-6.55-3.76-12.43-10.21-13.11c-6.45-0.68-12.36,4.09-13.17,10.64c-0.3,2.4,0.13,4.71,1.11,6.71l-8.58,6.08
		c-1.43-2.34-3.71-4.21-6.51-5.22l2.78-6.14c5.66-0.24,10.48-4.2,11.15-9.54c0.38-3.03-0.66-5.91-2.62-8.1l5.89-4.93
		c1.82,1.7,4.22,2.9,7,3.19c6.45,0.68,12.29-3.59,13.03-9.52c0.74-5.93-3.9-11.31-10.35-11.99c-6.45-0.68-12.29,3.59-13.03,9.52
		c-0.25,1.97,0.15,3.86,0.96,5.55l-4.56,7.16c-1.78-1.54-4.06-2.6-6.67-2.88c-0.77-0.08-1.52-0.08-2.27-0.03l-0.39-18.63
		c4.18-1.3,7.41-4.7,7.95-8.99c0.6-4.84-2.41-9.27-7.03-11.12l0.81-5.49c5.51-0.38,10.15-4.31,10.8-9.55
		c0.74-5.93-3.9-11.31-10.35-11.99s-12.29,3.59-13.03,9.52c-0.67,5.36,3.07,10.23,8.55,11.63l1.22,5.27
		c-0.44-0.09-0.86-0.22-1.32-0.27c-6.45-0.68-12.29,3.59-13.03,9.52c-0.26,2.09,0.18,4.1,1.1,5.88c-2.4-0.25-4.68,0.35-6.56,1.5
		l-2.46-8.92c1.81-1.44,3.08-3.46,3.38-5.81c0.62-4.98-3.28-9.5-8.69-10.07c-5.41-0.57-10.32,3.01-10.95,7.99
		c-0.62,4.98,3.28,9.5,8.69,10.07c1.36,0.14,2.68,0.02,3.92-0.31l4.91,7.92c-1.7,1.43-2.89,3.37-3.17,5.63
		c-0.62,4.98,3.28,9.5,8.69,10.07c1.43,0.15,2.82,0,4.11-0.38l7.26,8.37c-2.76,1.71-4.76,4.44-5.17,7.71
		c-0.66,5.26,2.93,10.06,8.24,11.56l-0.31,6.14c-0.54-0.13-1.09-0.23-1.66-0.29c-3.02-0.32-5.92,0.37-8.31,1.76l-2.91-4.37
		c2.83-1.7,4.89-4.46,5.3-7.79c0.74-5.93-3.9-11.31-10.35-11.99c-6.45-0.68-12.29,3.59-13.03,9.52c-0.74,5.93,3.9,11.31,10.35,11.99
		c1.34,0.14,2.63,0.02,3.87-0.23l5.43,3.78c-2.44,1.87-4.15,4.57-4.54,7.7c-0.73,5.83,3.32,11.15,9.28,12.68l-1.94,17.83l-28.27-55
		c2.99-1.68,5.16-4.52,5.59-7.96c0.74-5.93-3.9-11.31-10.35-11.99c-6.45-0.68-12.29,3.59-13.03,9.52
		c-0.74,5.93,3.9,11.31,10.35,11.99c1.09,0.12,2.15,0.04,3.19-0.11l32.31,55.57l-2.19,20.13c-16.61,17.23-29.96,34.81-40.63,52.47
		c0.48-13.27-3.27-28.01-4.34-31.9c3.68-1.51,6.44-4.68,6.93-8.61c0.62-5-2.59-9.57-7.47-11.3l3.97-12.19
		c0.08,0.01,0.16,0.03,0.24,0.04c6.45,0.68,12.36-4.09,13.17-10.64c0.82-6.55-3.76-12.43-10.21-13.11
		c-4.83-0.51-9.36,2.04-11.67,6.11l0.1-6.54c4.67-1.03,8.39-4.62,8.97-9.26c0.74-5.93-3.9-11.31-10.35-11.99
		c-6.45-0.68-12.29,3.59-13.04,9.52c-0.73,5.81,3.73,11.06,9.97,11.91l2.71,35.58c-1.74,0.27-3.35,0.88-4.76,1.78l-3.01-6.41
		c1.87-1.68,3.18-3.89,3.5-6.46c0.74-5.93-3.9-11.31-10.35-11.99c-6.45-0.68-12.29,3.59-13.03,9.52
		c-0.74,5.93,3.9,11.31,10.35,11.99c2.21,0.23,4.32-0.15,6.21-0.94l5.12,5.19c-2.03,1.7-3.46,4.02-3.8,6.73
		c-0.74,5.93,3.9,11.31,10.35,11.99c0.55,0.06,1.09,0.03,1.63,0.02c1.34,4.93,8.22,32.05,1.16,44.49l0.02,0.01
		c-3.59,6.81-6.8,13.63-9.64,20.43c-0.05,0.12-0.12,0.26-0.17,0.37c-0.68,1.6-1.02,2.48-1.02,2.48l0.02,0.01
		c-6.17,15.27-10.56,30.45-13.48,45.4c-5.26-20.04-20.34-34.59-24.79-38.54c0.98-1.37,1.68-2.94,1.89-4.68
		c0.49-3.92-1.4-7.57-4.59-9.81l6.59-10.05c1.06,0.43,2.17,0.77,3.38,0.9c6.45,0.68,12.29-3.59,13.03-9.52
		c0.74-5.93-3.9-11.31-10.35-11.99c-6.45-0.68-12.29,3.59-13.03,9.52c-0.43,3.41,0.97,6.61,3.43,8.87l-4.19,11.54
		c-1.38-0.75-2.93-1.27-4.62-1.44c0,0-0.01,0-0.01,0l-3.03-17.71c3.48-1.43,6.04-4.3,6.48-7.85c0.45-3.57-1.38-6.93-4.46-9.05
		c3.06-1.88,5.29-5.09,5.77-8.93c0.82-6.55-3.76-12.43-10.21-13.11c-6.45-0.68-12.36,4.09-13.17,10.64
		c-0.27,2.17,0.06,4.27,0.85,6.13c-1.65-1.19-3.65-2.02-5.89-2.26c-0.6-0.06-1.18-0.04-1.76-0.02l-4.66-17.3
		c3.52-1.56,6.14-4.67,6.62-8.5c0.74-5.93-3.9-11.31-10.35-11.99s-12.29,3.59-13.04,9.52c-0.74,5.93,3.9,11.31,10.35,11.99
		c0.7,0.07,1.38,0.06,2.06,0.03l5.54,16.85c-4.11,1.34-7.27,4.69-7.8,8.94c-0.74,5.93,3.9,11.31,10.35,11.99
		c1.46,0.15,2.89,0.02,4.24-0.29l7.3,22.21l-5.31-3.9c0.57-1.11,0.99-2.32,1.16-3.62c0.74-5.93-3.48-11.26-9.41-11.89
		c-3.32-0.35-6.45,0.88-8.72,3.05l-13.45-9.88c1.24-1.5,2.11-3.29,2.36-5.29c0.74-5.93-3.9-11.31-10.35-11.99
		c-6.45-0.68-12.29,3.59-13.03,9.52c-0.74,5.93,3.9,11.31,10.35,11.99c2.62,0.28,5.13-0.3,7.25-1.44l14.89,9.53
		c-0.5,0.86-0.84,1.81-1.09,2.81c-1.68-1.02-3.59-1.71-5.68-1.93c-7.68-0.81-14.7,4.8-15.66,12.51s4.5,14.64,12.17,15.45
		c7.08,0.75,13.59-3.97,15.32-10.75l19.82-2.17l2.86,1.83c-0.87,1.31-1.49,2.79-1.69,4.41c-0.09,0.73-0.1,1.45-0.03,2.15l-1.85-0.19
		c-1.58-3.08-4.62-5.32-8.34-5.71c-5.94-0.63-11.37,3.69-12.11,9.62c-0.74,5.93,3.49,11.26,9.42,11.89
		c1.72,0.18,3.38-0.09,4.91-0.66c-0.42,0.92-0.76,1.89-0.89,2.94c-0.74,5.93,3.9,11.31,10.35,11.99c6.15,0.65,11.7-3.23,12.85-8.73
		l19.96,6.22c5.88,9.67,10.62,22.12,8.9,35.89l0.05,0c-1.6,13.92-2.01,27.54-1.51,40.73c-0.01,0.29-0.04,0.6-0.04,0.89l0.08,0
		c0.52,12.79,1.9,25.17,3.89,37c-1.16-2.18-2.42-4.49-3.83-6.91c-1.58-2.69-3.32-5.49-5.21-8.33c-1.9-2.84-3.98-5.71-6.21-8.55
		c-2.28-2.81-4.64-5.63-7.3-8.24c-1.14-1.18-2.36-2.29-3.6-3.37l-0.22-1.24c-3.54-20.05-16.64-28.07-51.92-31.8
		c-22.95-2.42-35.2-14.9-35.32-15.02l-6.67-6.93l2.75,8.9c0.14,0.46,3.6,11.5,11.28,23.15c10.33,15.67,23.4,24.76,37.8,26.28
		c27.11,2.86,38.53-1.35,40.57-2.23c1.26,1.17,2.47,2.38,3.62,3.66c2.48,2.62,4.68,5.47,6.79,8.28c2.07,2.85,3.99,5.73,5.74,8.58
		c1.74,2.85,3.34,5.65,4.77,8.34c1.44,2.69,2.7,5.28,3.85,7.67c2.25,4.81,3.91,8.9,5.01,11.74c0.16,0.44,0.31,0.83,0.45,1.21
		c-1.89,1.68-3.22,3.92-3.54,6.5c-0.67,5.38,3.1,10.26,8.62,11.64c6.74,24.32,15.37,45.08,22.93,60.71
		c0.73,1.69,1.26,2.71,1.38,2.93l0.05-0.02c5.06,10.22,9.53,18.01,12.45,22.83l4-2.05c-3.09-5.09-7.91-13.52-13.34-24.67
		c-3.25-7.45-12.9-34.03,0.6-60.82c2.73-0.93,5.01-2.74,6.37-5.13c-0.01,0.09-0.03,0.17-0.04,0.25
		c-0.82,6.55,3.76,12.43,10.21,13.11c6.45,0.68,12.36-4.09,13.17-10.64c0.18-1.43,0.09-2.82-0.21-4.14
		c5.99,0.14,11.18-3.6,11.83-8.79c0.69-5.52-3.99-10.56-10.44-11.24c-2.29-0.24-4.49,0.12-6.42,0.91c-0.43-2.11-1.34-4.07-2.63-5.72
		c2.7-1.71,4.65-4.41,5.05-7.64c0.24-1.96-0.14-3.83-0.94-5.52l7.82-3.96c1.84,1.83,4.34,3.12,7.24,3.42
		c6.45,0.68,12.29-3.59,13.03-9.52c0.74-5.93-3.9-11.31-10.35-11.99c-6.45-0.68-12.29,3.59-13.03,9.52
		c-0.24,1.9,0.13,3.73,0.88,5.38l-6.28,5.9c-1.82-2.79-4.94-4.82-8.71-5.22c-6.45-0.68-12.29,3.59-13.03,9.52
		c-0.04,0.32,0,0.62-0.01,0.93c-1.19-0.74-2.54-1.25-4.02-1.47l2.33-20.01c4.74-0.99,8.52-4.6,9.11-9.28
		c0.74-5.93-3.9-11.31-10.35-11.99c-6.45-0.68-12.29,3.59-13.03,9.52c-0.72,5.79,3.7,11.03,9.92,11.9l0.8,19.75
		c-4.59-0.16-8.72,2.58-10.48,6.68c-0.97-0.37-1.99-0.66-3.08-0.77c-6.45-0.68-12.29,3.59-13.03,9.52c-0.3,2.44,0.34,4.77,1.61,6.74
		c-0.58,0.08-1.15,0.17-1.71,0.33c-3.36-15.84-5.71-32.83-6.38-50.64c0.43-9.72,5.9-23.3,15.21-36.44c0.03-0.03,0.04-0.04,0.07-0.08
		c0.3-0.33,0.75-0.91,1.31-1.49c0.56-0.55,1.19-1.26,2.08-1.98c0.42-0.38,0.89-0.76,1.41-1.12c0.51-0.39,1.06-0.76,1.67-1.1
		c2.38-1.46,5.58-2.59,9.27-2.88c1.84-0.18,3.79-0.16,5.77,0c1.98,0.16,4.01,0.44,6.02,0.83c0.51,0.09,1.02,0.21,1.53,0.32
		l0.59,0.85c0.4,0.58,4.39,5.86,19.73,11.66c3.02,1.14,5.93,1.79,8.71,2.09c14.17,1.5,24.64-6.38,25.16-6.78l1.79-1.38l-1.53-1.62
		c-0.25-0.27-6.37-6.62-18.21-9.43c-17.05-4.05-25.78-1.3-34.66,2.41l-1.14,0.48c-0.49-0.14-0.98-0.29-1.48-0.42
		c-2.03-0.55-4.11-0.99-6.2-1.3c-2.09-0.31-4.19-0.49-6.25-0.43c-2.7,0.02-5.27,0.51-7.58,1.24c12.72-14.26,29.95-26.45,49.96-30.3
		c0.66,5.35,5.25,9.78,11.3,10.42c7.05,0.74,13.44-3.92,14.25-10.41c0.19-1.51,0.05-2.98-0.35-4.36l2.85-0.76l2.77,3.17
		c-3.08,1.8-5.29,4.81-5.74,8.4c-0.79,6.3,4.15,12.02,11,12.74c6.33,0.67,12.11-3.16,13.57-8.72c0.98,4.48,4.95,8.1,10.14,8.64
		c4.82,0.51,9.31-1.75,11.57-5.41c1.36,0.75,2.89,1.25,4.54,1.43c6.65,0.7,12.74-4.15,13.57-10.82c0.83-6.67-3.9-12.66-10.55-13.36
		c-1.72-0.18-4.94,0.3-4.94,0.3l-8.82,0.34c1.12-1.5,1.87-3.26,2.11-5.18c0.05-0.38,0.07-0.76,0.08-1.13l28.93,5.23
		c-0.43,5.73,4.09,10.84,10.35,11.5c6.45,0.68,12.29-3.59,13.03-9.52C1157.2,1006.19,1152.55,1000.81,1146.11,1000.13z
		 M1142.25,956.75L1142.25,956.75c-2.23,3.49-6.41,5.16-9.98,4.26c-0.44-0.24-0.84-0.52-1.18-0.84c-1.54-1.42-2.07-3.26-2.02-4.98
		c-0.03-0.86,0.19-1.72,0.45-2.53c0.23-0.82,0.61-1.61,1.12-2.34c0.45-0.75,1.01-1.45,1.68-2.03c0.66-0.58,1.36-1.18,2.19-1.58
		c1.61-0.86,3.6-1.34,5.7-0.79c0.24,0.06,0.47,0.19,0.71,0.28C1143.97,948.55,1144.63,953.03,1142.25,956.75z M1091.57,948.35
		c-0.45,3.64-3.72,6.36-7.57,6.57c-0.33-0.07-0.67-0.13-0.98-0.24c-1.98-0.72-3.35-2.06-4.1-3.46c-0.42-0.68-0.62-1.43-0.75-2.13
		c-0.17-0.7-0.18-1.42-0.05-2.12c0.06-0.71,0.23-1.4,0.57-2.05c0.32-0.64,0.68-1.34,1.26-1.91c1.08-1.2,2.73-2.22,4.83-2.51
		c0.43-0.06,0.89-0.06,1.34-0.05C1089.66,941.55,1092.02,944.8,1091.57,948.35z M1091.04,979.16c-0.45,3.64-3.72,6.36-7.57,6.57
		c-0.33-0.07-0.68-0.13-0.99-0.24c-1.98-0.72-3.35-2.06-4.1-3.46c-0.42-0.68-0.62-1.43-0.75-2.13c-0.17-0.7-0.18-1.42-0.04-2.12
		c0.06-0.71,0.23-1.4,0.57-2.05c0.32-0.65,0.68-1.34,1.26-1.91c1.08-1.2,2.73-2.22,4.83-2.51c0.43-0.06,0.89-0.06,1.34-0.05
		C1089.12,972.37,1091.48,975.62,1091.04,979.16z M1053.08,989.72c-0.46,3.65-3.72,6.36-7.57,6.57c-0.33-0.07-0.67-0.13-0.98-0.24
		c-1.98-0.72-3.35-2.06-4.1-3.46c-0.42-0.68-0.62-1.43-0.75-2.13c-0.17-0.7-0.18-1.42-0.04-2.12c0.06-0.71,0.23-1.4,0.57-2.05
		c0.32-0.65,0.68-1.34,1.26-1.91c1.08-1.2,2.73-2.22,4.83-2.51c0.43-0.06,0.89-0.06,1.34-0.05
		C1051.17,982.93,1053.52,986.18,1053.08,989.72z M1032.61,953.96c5.25-1.47,9.13-3.12,11.81-4.48
		c-1.76,6.32-6.43,16.93-18.01,18.46c-7.21,0.96-12.22,0.89-15.54,0.58c0.7-0.21,1.44-0.41,2.13-0.62c3.71-1.16,7.12-2.36,9.98-3.54
		c5.76-2.29,9.14-4.58,9.14-4.58s-3.52,2.09-9.37,4.05c-2.91,1.01-6.37,2.02-10.11,2.97c-1.69,0.42-3.44,0.82-5.21,1.2
		c-0.05-0.01-0.11-0.02-0.16-0.03C1008.97,960.9,1014.65,959.01,1032.61,953.96z M1101.99,864.92c-1.09,0.14-2.4,0.38-3.88,0.73
		c-1.49,0.33-3.18,0.66-4.97,1.21c-0.9,0.25-1.84,0.52-2.82,0.79c-0.95,0.32-1.94,0.66-2.96,1c-2.05,0.65-4.12,1.55-6.29,2.41
		c-2.12,0.96-4.35,1.9-6.5,3.04c-2.19,1.09-4.35,2.28-6.49,3.52c-1.53,0.89-3.02,1.81-4.49,2.75c14.91-20.88,28.49-23.39,57.3-28.68
		c6.17-1.14,13.08-2.41,20.79-4.01c0.72,7.87-2.7,15.74-9.77,22.36c-6.9,6.46-27.31,20.58-70.85,15.27
		c2.64-2.02,5.42-4.04,8.31-5.94c2.02-1.32,4.07-2.61,6.16-3.79c2.05-1.23,4.18-2.27,6.21-3.32c2.08-0.96,4.07-1.95,6.05-2.7
		c0.98-0.39,1.94-0.77,2.86-1.14c0.95-0.32,1.86-0.63,2.74-0.93c1.74-0.64,3.4-1.06,4.85-1.46c1.45-0.43,2.74-0.73,3.81-0.93
		c2.14-0.45,3.36-0.7,3.36-0.7S1104.15,864.59,1101.99,864.92z M1082.29,833.78c-0.52,4.19-3.83,7.36-7.69,7.68
		c-0.34-0.06-0.69-0.11-1.01-0.22c-2.04-0.73-3.33-2.21-4.04-3.8c-0.4-0.78-0.59-1.64-0.71-2.48c-0.16-0.84-0.15-1.7-0.01-2.56
		c0.08-0.86,0.28-1.7,0.64-2.49c0.35-0.78,0.72-1.59,1.31-2.26c1.09-1.39,2.7-2.57,4.86-2.85c0.43-0.06,0.89-0.05,1.35-0.01
		C1080.5,826.01,1082.8,829.7,1082.29,833.78z M1082.16,803.84c-0.45,3.64-3.72,6.36-7.57,6.57c-0.33-0.07-0.67-0.13-0.98-0.24
		c-1.98-0.72-3.35-2.06-4.1-3.46c-0.42-0.68-0.62-1.43-0.75-2.13c-0.17-0.7-0.18-1.42-0.04-2.12c0.06-0.71,0.23-1.4,0.57-2.05
		c0.32-0.65,0.68-1.34,1.26-1.91c1.08-1.2,2.73-2.22,4.83-2.51c0.43-0.06,0.89-0.06,1.34-0.05
		C1080.25,797.04,1082.6,800.29,1082.16,803.84z M1019.41,778.53c-1.49-0.67-2.39-1.77-2.84-2.82c-0.49-1.05-0.48-2.04-0.4-2.98
		c0.15-0.93,0.41-1.88,1.13-2.8c0.69-0.92,1.83-1.8,3.44-2.14c0.32-0.07,0.67-0.09,1.01-0.1c2.67,0.87,4.45,3.34,4.11,6.04
		c-0.35,2.77-2.8,4.85-5.71,5.05C1019.91,778.69,1019.64,778.63,1019.41,778.53z M1027.27,834.06c-1.98-0.72-3.35-2.06-4.1-3.46
		c-0.42-0.68-0.62-1.43-0.75-2.13c-0.17-0.7-0.18-1.42-0.04-2.12c0.06-0.71,0.23-1.4,0.57-2.05c0.32-0.65,0.68-1.34,1.26-1.91
		c1.08-1.2,2.73-2.22,4.83-2.51c0.43-0.06,0.89-0.06,1.34-0.05c3.53,1.11,5.89,4.36,5.44,7.9c-0.45,3.64-3.72,6.36-7.57,6.57
		C1027.92,834.23,1027.58,834.18,1027.27,834.06z M1003.64,822.37c-1.98-0.72-3.35-2.06-4.1-3.46c-0.42-0.68-0.62-1.43-0.75-2.13
		c-0.17-0.7-0.18-1.42-0.05-2.12c0.06-0.71,0.23-1.4,0.57-2.05c0.32-0.65,0.68-1.34,1.26-1.91c1.08-1.2,2.73-2.22,4.83-2.51
		c0.43-0.06,0.88-0.06,1.34-0.05c3.53,1.11,5.89,4.36,5.44,7.9c-0.45,3.64-3.72,6.36-7.57,6.57
		C1004.3,822.54,1003.95,822.48,1003.64,822.37z M1053,851.19c-0.52,4.13-4.23,7.2-8.6,7.42c-0.38-0.07-0.76-0.13-1.11-0.25
		c-2.25-0.74-3.88-2.21-4.8-3.82c-0.51-0.78-0.77-1.64-0.94-2.47c-0.2-0.82-0.23-1.66-0.08-2.49c0.07-0.83,0.29-1.65,0.7-2.41
		c0.39-0.75,0.84-1.55,1.52-2.2c1.29-1.36,3.23-2.45,5.6-2.71c0.5-0.06,1.01-0.04,1.53-0.01
		C1050.83,843.49,1053.5,847.17,1053,851.19z M1058.86,823.19c-0.45,3.64-3.72,6.36-7.57,6.57c-0.33-0.07-0.68-0.13-0.99-0.24
		c-1.98-0.72-3.35-2.06-4.1-3.46c-0.42-0.68-0.62-1.43-0.75-2.13c-0.17-0.7-0.18-1.42-0.04-2.12c0.06-0.71,0.23-1.4,0.57-2.05
		c0.32-0.65,0.68-1.34,1.26-1.91c1.08-1.2,2.73-2.22,4.83-2.51c0.43-0.06,0.89-0.06,1.34-0.05
		C1056.94,816.4,1059.3,819.65,1058.86,823.19z M1058.39,757.4c-0.46,3.65-3.72,6.36-7.57,6.57c-0.33-0.07-0.67-0.13-0.98-0.24
		c-1.98-0.72-3.35-2.06-4.1-3.46c-0.42-0.68-0.62-1.43-0.75-2.13c-0.17-0.7-0.18-1.42-0.04-2.12c0.06-0.71,0.23-1.4,0.57-2.05
		c0.32-0.65,0.68-1.34,1.26-1.91c1.08-1.2,2.73-2.22,4.83-2.51c0.43-0.06,0.89-0.06,1.34-0.05
		C1056.48,750.6,1058.83,753.86,1058.39,757.4z M1053.8,783.56c-0.45,3.64-3.71,6.36-7.56,6.57c-0.34-0.07-0.68-0.13-0.99-0.25
		c-1.98-0.72-3.35-2.06-4.1-3.46c-0.42-0.68-0.62-1.43-0.75-2.13c-0.17-0.7-0.18-1.42-0.04-2.12c0.06-0.71,0.23-1.4,0.57-2.05
		c0.32-0.65,0.68-1.34,1.26-1.91c1.08-1.2,2.73-2.22,4.83-2.51c0.43-0.06,0.89-0.06,1.34-0.05
		C1051.89,776.76,1054.24,780.01,1053.8,783.56z M1033.76,801.84c-1.49-0.67-2.39-1.77-2.84-2.82c-0.49-1.05-0.48-2.04-0.4-2.98
		c0.15-0.93,0.41-1.88,1.13-2.8c0.69-0.92,1.83-1.8,3.44-2.14c0.32-0.07,0.67-0.09,1.01-0.1c2.67,0.87,4.45,3.34,4.12,6.04
		c-0.35,2.77-2.8,4.84-5.71,5.05C1034.25,802,1033.99,801.94,1033.76,801.84z M1040.65,803.09c1.72-1.43,2.93-3.39,3.21-5.67
		c0.18-1.47-0.07-2.88-0.59-4.18c0.38,0.08,0.75,0.19,1.14,0.23c0.27,0.03,0.52,0,0.79,0.01l3.46,18.28
		c-1.12,0.19-2.2,0.49-3.2,0.96L1040.65,803.09z M982.97,862.53c-1.98-0.72-3.35-2.06-4.1-3.46c-0.42-0.68-0.62-1.43-0.75-2.13
		c-0.17-0.7-0.18-1.42-0.05-2.12c0.06-0.71,0.23-1.4,0.57-2.05c0.32-0.65,0.68-1.34,1.26-1.91c1.08-1.2,2.73-2.22,4.83-2.51
		c0.43-0.06,0.89-0.06,1.34-0.05c3.53,1.11,5.88,4.36,5.44,7.9c-0.46,3.65-3.72,6.36-7.57,6.57
		C983.63,862.7,983.28,862.64,982.97,862.53z M967.99,896.46c-1.98-0.72-3.35-2.06-4.1-3.46c-0.42-0.68-0.62-1.43-0.75-2.13
		c-0.17-0.7-0.18-1.42-0.04-2.12c0.06-0.71,0.23-1.4,0.57-2.05c0.32-0.65,0.68-1.34,1.26-1.91c1.08-1.2,2.73-2.22,4.83-2.51
		c0.43-0.06,0.89-0.06,1.34-0.05c3.53,1.11,5.89,4.36,5.44,7.9c-0.46,3.64-3.72,6.36-7.57,6.57
		C968.64,896.63,968.3,896.57,967.99,896.46z M985.87,919.42c-1.98-0.72-3.35-2.06-4.1-3.46c-0.42-0.68-0.62-1.43-0.75-2.13
		c-0.17-0.7-0.18-1.42-0.04-2.12c0.06-0.71,0.23-1.4,0.57-2.05c0.32-0.65,0.68-1.34,1.26-1.91c1.08-1.2,2.73-2.22,4.83-2.51
		c0.43-0.06,0.89-0.06,1.34-0.05c3.53,1.11,5.88,4.36,5.44,7.9c-0.46,3.65-3.72,6.36-7.57,6.57
		C986.52,919.59,986.18,919.53,985.87,919.42z M1004.34,879c-0.52,4.19-3.83,7.36-7.68,7.68c-0.34-0.06-0.7-0.11-1.01-0.23
		c-2.04-0.73-3.33-2.21-4.04-3.8c-0.4-0.78-0.59-1.64-0.71-2.48c-0.16-0.84-0.15-1.7-0.01-2.56c0.08-0.86,0.28-1.7,0.64-2.49
		c0.35-0.78,0.72-1.59,1.31-2.26c1.09-1.39,2.7-2.57,4.86-2.85c0.43-0.06,0.89-0.05,1.35-0.01
		C1002.55,871.23,1004.85,874.92,1004.34,879z M985.92,884.03c1.05,1.94,2.63,3.56,4.57,4.64l-1.42,13.09
		c-0.45-0.1-0.89-0.22-1.35-0.27c-0.7-0.07-1.38-0.06-2.06-0.03L985.92,884.03z M955.42,964.1c-0.45,3.64-3.72,6.36-7.57,6.57
		c-0.33-0.07-0.68-0.13-0.99-0.24c-1.98-0.72-3.35-2.06-4.1-3.46c-0.42-0.68-0.62-1.43-0.75-2.13c-0.17-0.7-0.18-1.42-0.04-2.12
		c0.06-0.71,0.23-1.4,0.57-2.05c0.32-0.64,0.68-1.34,1.26-1.91c1.08-1.2,2.73-2.22,4.83-2.51c0.43-0.06,0.89-0.06,1.34-0.05
		C953.5,957.31,955.86,960.56,955.42,964.1z M894.63,918.98c-1.98-0.72-3.35-2.06-4.1-3.46c-0.42-0.68-0.62-1.43-0.75-2.13
		c-0.17-0.7-0.18-1.42-0.04-2.12c0.06-0.71,0.23-1.4,0.57-2.05c0.32-0.64,0.68-1.34,1.26-1.91c1.08-1.2,2.73-2.22,4.83-2.51
		c0.43-0.06,0.89-0.06,1.34-0.05c3.53,1.11,5.88,4.36,5.44,7.9c-0.46,3.65-3.72,6.36-7.57,6.57
		C895.28,919.15,894.93,919.09,894.63,918.98z M869.92,956.68c-1.98-0.72-3.35-2.06-4.1-3.46c-0.42-0.68-0.62-1.43-0.75-2.13
		c-0.17-0.7-0.18-1.42-0.04-2.12c0.06-0.71,0.23-1.4,0.57-2.05c0.32-0.65,0.68-1.34,1.26-1.91c1.08-1.2,2.73-2.22,4.83-2.51
		c0.43-0.06,0.89-0.06,1.34-0.05c3.53,1.11,5.88,4.36,5.44,7.9c-0.46,3.65-3.72,6.36-7.57,6.57
		C870.57,956.85,870.23,956.79,869.92,956.68z M881.79,993.6c-2.67-0.71-4.56-2.56-5.57-4.62c-0.58-1-0.89-2.11-1.08-3.21
		c-0.23-1.09-0.24-2.23-0.06-3.34c0.11-1.12,0.4-2.22,0.89-3.24c0.48-1.02,1.04-2.04,1.85-2.89c1.51-1.77,3.78-3.2,6.55-3.33
		c0.57-0.04,1.16,0.01,1.75,0.09c1.44,0.49,2.73,1.28,3.79,2.32c1.59,1.56,2.65,3.62,3,5.93c0.14,0.96,0.21,1.95,0.08,2.97
		c-0.65,5.21-4.84,9.15-9.75,9.55C882.74,993.78,882.25,993.73,881.79,993.6z M900.07,980.79c-1.77-0.7-2.83-2.01-3.41-3.38
		c-0.33-0.67-0.46-1.4-0.56-2.1c-0.13-0.7-0.12-1.42,0.01-2.14c0.06-0.72,0.22-1.43,0.52-2.08c0.29-0.65,0.58-1.34,1.07-1.92
		c0.9-1.2,2.24-2.26,4.13-2.57c0.38-0.07,0.77-0.07,1.17-0.05c3.09,1.07,5.11,4.28,4.67,7.81c-0.08,0.64-0.26,1.25-0.48,1.83
		c-0.25,0.64-0.57,1.23-0.96,1.77c-1.26,1.73-3.18,2.88-5.29,3.06C900.64,980.95,900.34,980.9,900.07,980.79z M905.91,982.87
		c1.3-0.76,2.42-1.78,3.31-3l5.28,3.38L905.91,982.87z M937,992.59c-0.46,3.64-3.72,6.36-7.57,6.57c-0.33-0.07-0.68-0.13-0.99-0.24
		c-1.98-0.72-3.35-2.06-4.1-3.46c-0.42-0.68-0.62-1.43-0.75-2.13c-0.17-0.7-0.18-1.42-0.04-2.12c0.06-0.71,0.23-1.4,0.57-2.05
		c0.32-0.65,0.68-1.34,1.26-1.91c1.08-1.2,2.73-2.22,4.83-2.51c0.43-0.06,0.89-0.06,1.34-0.05
		C935.09,985.79,937.44,989.05,937,992.59z M904.78,956.79c-1.98-0.72-3.35-2.06-4.1-3.46c-0.42-0.68-0.62-1.43-0.75-2.13
		c-0.17-0.7-0.18-1.42-0.05-2.12c0.06-0.71,0.23-1.4,0.57-2.05c0.32-0.65,0.68-1.34,1.26-1.91c1.08-1.2,2.73-2.22,4.83-2.51
		c0.42-0.06,0.86-0.06,1.3-0.04c2.55,0.79,4.49,2.68,5.22,5.01c-1.47,1.47-2.46,3.32-2.72,5.39c-0.1,0.81-0.05,1.61,0.07,2.39
		c-0.3,0.22-0.62,0.41-0.95,0.6c-0.73,0.41-1.52,0.71-2.36,0.89c-0.44,0.09-0.88,0.16-1.34,0.19
		C905.43,956.96,905.09,956.9,904.78,956.79z M921.63,960.63c-1.94-0.71-3.35-1.97-4.13-3.26c-0.44-0.62-0.64-1.3-0.78-1.91
		c-0.17-0.61-0.19-1.21-0.07-1.79c0.04-0.59,0.19-1.17,0.51-1.73c0.31-0.55,0.66-1.18,1.24-1.69c0.94-0.94,2.34-1.74,4.03-2.13
		c0.84,0.04,1.67,0.02,2.48-0.11c3.34,1.12,5.57,3.96,5.19,7.04c-0.41,3.28-3.63,5.69-7.48,5.84
		C922.28,960.81,921.94,960.74,921.63,960.63z M931.4,937.07c-0.46,3.72-3.13,6.61-6.41,7.45c-0.42,0.11-0.85,0.18-1.28,0.23
		c-0.34-0.06-0.69-0.11-1-0.22c-2.04-0.72-3.33-2.21-4.04-3.8c-0.4-0.78-0.59-1.64-0.71-2.48c-0.16-0.84-0.15-1.7-0.01-2.56
		c0.08-0.86,0.28-1.7,0.64-2.49c0.35-0.78,0.72-1.59,1.31-2.26c1.09-1.39,2.7-2.57,4.86-2.85c0.43-0.06,0.89-0.05,1.35-0.01
		C929.61,929.3,931.91,933,931.4,937.07z M916.83,983.27l-6.45-23.94c0.43-0.19,0.83-0.42,1.22-0.66c1.76,2.93,5.11,5.1,9.19,5.53
		c0.77,0.08,1.52,0.09,2.26,0.04l5.92,16.72c-3.79-0.01-7.23,1.65-9.41,4.31L916.83,983.27z M905.19,1004.69
		c-1.77-0.7-2.84-2.01-3.42-3.38c-0.33-0.67-0.47-1.4-0.56-2.1c-0.13-0.7-0.12-1.42,0.01-2.14c0.06-0.72,0.22-1.43,0.52-2.08
		c0.29-0.65,0.58-1.34,1.07-1.92c0.9-1.2,2.25-2.26,4.15-2.57c0.38-0.07,0.78-0.07,1.18-0.05c3.09,1.07,5.12,4.28,4.68,7.81
		c-0.45,3.63-3.35,6.37-6.75,6.65C905.77,1004.85,905.46,1004.8,905.19,1004.69z M919.56,1018.96c-1.98-0.72-3.35-2.06-4.1-3.46
		c-0.42-0.68-0.62-1.43-0.75-2.13c-0.17-0.7-0.18-1.42-0.05-2.12c0.06-0.71,0.23-1.4,0.57-2.05c0.32-0.65,0.68-1.34,1.26-1.91
		c1.08-1.2,2.73-2.22,4.83-2.51c0.43-0.06,0.89-0.06,1.34-0.05c3.53,1.11,5.88,4.36,5.44,7.9c-0.46,3.65-3.72,6.36-7.57,6.57
		C920.21,1019.13,919.87,1019.07,919.56,1018.96z M931.76,1012.67c0.52-5.79-4.03-10.98-10.35-11.65c-2.1-0.22-4.11,0.12-5.92,0.84
		c0.47-1,0.83-2.07,0.97-3.22c0.08-0.62,0.07-1.22,0.04-1.83l2.23,0.23c1.79,2.91,4.99,5.03,8.87,5.44
		c2.91,0.31,5.66-0.43,7.91-1.84c2.22,2,7.69,7.23,12.98,14.75L931.76,1012.67z M894.96,1098.29
		c-23.34-2.47-36.84-26.53-42.31-38.99c6.25,4.16,16.76,9.44,31.43,10.99c33.88,3.58,43.57,11.17,47.09,24.48
		c-2.85-1.96-5.86-3.51-8.97-4.81c-6.73-2.68-13.53-3.51-19.23-3.98c-2.86-0.25-5.48-0.44-7.79-0.73c-2.31-0.25-4.29-0.67-5.89-1.09
		c-1.59-0.46-2.82-0.9-3.6-1.31c-0.8-0.38-1.22-0.58-1.22-0.58s0.42,0.22,1.2,0.62c0.76,0.44,1.98,0.92,3.56,1.44
		c1.59,0.48,3.58,0.97,5.89,1.3c2.31,0.37,4.93,0.66,7.77,1c5.67,0.67,12.32,1.72,18.71,4.54c3.11,1.42,6.3,3.21,9.11,5.4
		c0.19,0.15,0.37,0.32,0.56,0.47C927.18,1098.27,916.16,1100.53,894.96,1098.29z M1048.76,1111.78c-0.45,3.64-3.72,6.36-7.57,6.57
		c-0.33-0.07-0.68-0.13-0.99-0.24c-1.98-0.72-3.35-2.06-4.1-3.46c-0.42-0.68-0.62-1.43-0.75-2.14c-0.17-0.7-0.18-1.42-0.04-2.12
		c0.06-0.71,0.23-1.4,0.57-2.05c0.32-0.65,0.68-1.34,1.26-1.91c1.08-1.2,2.73-2.22,4.83-2.51c0.43-0.06,0.89-0.06,1.34-0.05
		C1046.85,1104.99,1049.21,1108.24,1048.76,1111.78z M983.47,1151.95c0.12-0.02,0.24-0.04,0.36-0.06c-0.06,0.11-0.11,0.23-0.16,0.34
		C983.61,1152.13,983.53,1152.05,983.47,1151.95z M972.89,1164.64c-1.98-0.72-3.35-2.06-4.1-3.46c-0.42-0.68-0.62-1.43-0.75-2.13
		c-0.17-0.7-0.18-1.42-0.05-2.12c0.06-0.71,0.23-1.4,0.57-2.05c0.32-0.65,0.68-1.34,1.26-1.91c1.08-1.2,2.73-2.22,4.83-2.51
		c0.36-0.05,0.74-0.04,1.11-0.04c0.99,0.28,1.91,0.67,2.68,1.25c2.09,1.55,3.32,4.01,2.99,6.64c-0.44,3.54-3.53,6.21-7.23,6.56
		c-0.13,0.01-0.27-0.01-0.4,0C973.5,1164.79,973.18,1164.74,972.89,1164.64z M992.23,1146.06c0.07-0.13,0.13-0.28,0.2-0.41
		c0.3,0.1,0.63,0.15,0.95,0.23C992.99,1145.9,992.61,1145.99,992.23,1146.06z M1008.2,1154.59c-2.67-0.71-4.56-2.56-5.57-4.62
		c-0.58-1-0.89-2.11-1.08-3.21c-0.23-1.09-0.25-2.23-0.06-3.34c0.01-0.09,0.04-0.18,0.05-0.27c0.06-0.48,0.14-0.96,0.27-1.43
		c0.15-0.53,0.33-1.05,0.58-1.54c0.48-1.02,1.03-2.04,1.85-2.89c0.27-0.32,0.59-0.6,0.91-0.89c0.16-0.15,0.3-0.3,0.47-0.43
		c0.34-0.27,0.71-0.51,1.1-0.74c0.04,0.03,0.08,0.06,0.12,0.09c1.56,1.01,3.38,1.73,5.4,1.95c1.59,0.17,3.14,0.03,4.59-0.36
		c1.51,1.71,2.48,3.91,2.62,6.33c-1.68,1.52-2.84,3.48-3.12,5.73c-0.09,0.76-0.07,1.51,0.03,2.24c-3.04,0.08-5.85,1.36-7.97,3.41
		C1008.32,1154.6,1008.26,1154.6,1008.2,1154.59z M993.84,1163.84c-1.98-0.72-3.35-2.06-4.1-3.46c-0.42-0.68-0.62-1.43-0.75-2.13
		c-0.17-0.7-0.18-1.42-0.04-2.12c0.06-0.71,0.23-1.4,0.57-2.05c0.32-0.65,0.68-1.34,1.26-1.91c1.08-1.2,2.73-2.22,4.83-2.51
		c0.16-0.02,0.33,0,0.49-0.02c1.21,3,3.43,5.5,6.31,7.02c0,0.28,0.02,0.57-0.01,0.85c-0.46,3.65-3.72,6.36-7.57,6.57
		C994.49,1164.01,994.15,1163.95,993.84,1163.84z M1015.75,1171.44c-2.04-0.72-3.33-2.21-4.04-3.8c-0.4-0.78-0.59-1.64-0.71-2.48
		c-0.16-0.84-0.15-1.7-0.01-2.56c0.08-0.86,0.28-1.7,0.64-2.49c0.35-0.78,0.72-1.59,1.31-2.26c1.09-1.39,2.7-2.57,4.86-2.85
		c0.37-0.05,0.75-0.03,1.13-0.01c0.49,0.15,0.96,0.36,1.4,0.6c0.2,0.11,0.4,0.19,0.59,0.32c0.36,0.24,0.7,0.5,1.01,0.8
		c0.17,0.16,0.3,0.36,0.45,0.54c0.59,0.68,1.09,1.43,1.45,2.28c0.56,1.35,0.81,2.87,0.61,4.46c-0.52,4.19-3.83,7.36-7.68,7.68
		C1016.42,1171.6,1016.07,1171.55,1015.75,1171.44z M1036.06,1151.06c-0.41,3.28-3.63,5.69-7.48,5.84
		c-0.33-0.08-0.67-0.14-0.98-0.26c-0.74-0.27-1.38-0.64-1.97-1.05c-0.58-0.74-1.25-1.4-1.99-1.98c-0.05-0.08-0.12-0.16-0.17-0.24
		c-0.44-0.62-0.65-1.3-0.78-1.91c-0.17-0.61-0.19-1.21-0.07-1.79c0.04-0.59,0.19-1.17,0.51-1.73c0.31-0.55,0.66-1.18,1.24-1.69
		c1.08-1.09,2.76-2.02,4.82-2.31c0.43-0.06,0.89-0.07,1.34-0.06C1034.07,1144.92,1036.46,1147.87,1036.06,1151.06z M1021.62,1127.36
		c-0.3,2.41-1.84,4.4-3.95,5.55c-0.44,0.24-0.91,0.43-1.39,0.6c-0.17,0.06-0.34,0.13-0.52,0.17c-0.55,0.14-1.12,0.22-1.7,0.25
		c-0.34-0.07-0.68-0.13-0.99-0.25c-1.32-0.48-2.34-1.24-3.12-2.11c-0.39-0.43-0.73-0.88-0.98-1.35c-0.42-0.68-0.62-1.43-0.75-2.14
		c-0.17-0.7-0.18-1.42-0.04-2.12c0.06-0.71,0.23-1.4,0.57-2.05c0.32-0.65,0.68-1.34,1.26-1.91c1.08-1.2,2.73-2.22,4.83-2.51
		c0.43-0.06,0.89-0.06,1.34-0.05C1019.71,1120.57,1022.06,1123.82,1021.62,1127.36z M1002.48,1131.95
		c-3.78,2.11-6.57,5.91-7.24,10.47c-1.58-0.72-2.57-1.94-3.11-3.22c-0.33-0.67-0.46-1.4-0.56-2.1c-0.13-0.7-0.12-1.42,0.01-2.14
		c0.06-0.72,0.22-1.43,0.52-2.08c0.29-0.65,0.58-1.34,1.07-1.92c0.9-1.2,2.24-2.26,4.13-2.57c0.37-0.07,0.77-0.06,1.17-0.05
		C1000.25,1128.95,1001.68,1130.27,1002.48,1131.95z M985.28,1134.63c-0.33,3.72,1.26,7.14,3.99,9.29
		c-1.12,2.71-3.86,4.62-7.03,4.81c-0.35-0.07-0.71-0.14-1.03-0.26c-1.98-0.72-3.35-2.06-4.1-3.46c-0.42-0.68-0.62-1.43-0.75-2.13
		c-0.17-0.7-0.18-1.42-0.05-2.12c0.06-0.71,0.23-1.4,0.57-2.05c0.32-0.65,0.68-1.34,1.26-1.91c1.08-1.2,2.73-2.22,4.83-2.51
		c0.41-0.06,0.84-0.05,1.26-0.04C984.6,1134.36,984.95,1134.48,985.28,1134.63z M986.95,1203.04c-4.17-10.48-8.26-22.2-11.84-34.92
		c3.95-0.54,7.32-2.91,8.95-6.24c1.78,2.95,5.01,5.11,8.93,5.53c0.02,0,0.04,0,0.07,0C987.23,1180.15,986.11,1192.57,986.95,1203.04
		z M997.09,1101.39c-1.98-0.72-3.35-2.06-4.1-3.46c-0.42-0.68-0.62-1.43-0.75-2.13c-0.17-0.7-0.18-1.42-0.04-2.12
		c0.06-0.71,0.23-1.4,0.57-2.05c0.32-0.65,0.68-1.34,1.26-1.91c1.08-1.2,2.73-2.22,4.83-2.51c0.43-0.06,0.89-0.06,1.34-0.05
		c3.53,1.11,5.88,4.36,5.44,7.9c-0.46,3.65-3.71,6.36-7.56,6.58C997.75,1101.57,997.4,1101.51,997.09,1101.39z M1042.99,1052
		c6.88,1.63,11.6,4.64,14.02,6.5c-4.37,2.53-14.93,7.22-27.04,2.65c-6.89-2.61-11.23-5.06-13.9-6.9c0.76,0.14,1.54,0.32,2.28,0.44
		c3.88,0.63,7.52,1,10.64,1.26c6.24,0.5,10.39,0.84,10.39,0.84s-4.13-0.56-10.32-1.4c-3.09-0.43-6.68-1-10.46-1.83
		c-1.14-0.25-2.31-0.57-3.48-0.87C1022.21,1050.11,1029.72,1048.86,1042.99,1052z M1048.93,1026.45c-2.26-0.75-3.91-2.22-4.83-3.84
		c-0.51-0.79-0.77-1.65-0.95-2.49c-0.21-0.83-0.23-1.68-0.08-2.51c0.07-0.84,0.3-1.66,0.7-2.43c0.39-0.76,0.85-1.56,1.54-2.21
		c1.3-1.37,3.25-2.47,5.64-2.72c0.5-0.06,1.02-0.04,1.53-0.01c4.03,1.24,6.72,4.95,6.22,8.99c-0.52,4.16-4.25,7.25-8.65,7.46
		C1049.67,1026.63,1049.28,1026.57,1048.93,1026.45z M1114.64,985.32c-0.41,3.28-3.63,5.69-7.48,5.84
		c-0.33-0.08-0.67-0.14-0.98-0.26c-1.94-0.71-3.35-1.97-4.13-3.26c-0.44-0.62-0.64-1.3-0.78-1.91c-0.17-0.61-0.19-1.21-0.07-1.79
		c0.04-0.59,0.19-1.17,0.51-1.73c0.31-0.55,0.66-1.18,1.24-1.69c1.08-1.09,2.76-2.02,4.82-2.31c0.43-0.06,0.89-0.07,1.34-0.06
		C1112.64,979.18,1115.03,982.13,1114.64,985.32z M1100.42,1005.66c-0.5,3.99-4.08,6.96-8.3,7.17c-0.36-0.07-0.74-0.13-1.08-0.25
		c-2.17-0.74-3.72-2.17-4.59-3.71c-0.48-0.75-0.72-1.58-0.88-2.37c-0.19-0.79-0.21-1.59-0.07-2.38c0.07-0.8,0.27-1.58,0.66-2.3
		c0.37-0.72,0.79-1.49,1.45-2.12c1.23-1.31,3.08-2.39,5.38-2.65c0.48-0.06,0.97-0.05,1.47-0.02
		C1098.33,998.22,1100.91,1001.78,1100.42,1005.66z M1080.69,1010.27c1.26,2.09,3.2,3.8,5.58,4.84l-11.34-3.31L1080.69,1010.27z
		 M1073.71,1035.24c-2.17-0.74-3.72-2.17-4.59-3.71c-0.48-0.75-0.72-1.58-0.88-2.37c-0.19-0.79-0.21-1.59-0.07-2.38
		c0.07-0.8,0.27-1.58,0.66-2.3c0.37-0.72,0.79-1.49,1.45-2.12c1.23-1.31,3.08-2.39,5.38-2.65c0.48-0.06,0.98-0.05,1.47-0.02
		c3.87,1.2,6.45,4.76,5.96,8.63c-0.5,3.99-4.08,6.96-8.3,7.17C1074.42,1035.41,1074.05,1035.36,1073.71,1035.24z M1086.59,1025.26
		c-0.99-4.83-5.29-8.72-10.87-9.31c-1.39-0.15-2.75-0.07-4.05,0.19l-4.44-2.28l5.41-1.44l17.31,7.68
		C1088.35,1021.47,1087.17,1023.23,1086.59,1025.26z M1122.62,1023.56c-0.54,4.3-4,7.55-8.04,7.86c-0.36-0.07-0.73-0.11-1.06-0.23
		c-1.78-0.61-3.02-1.78-3.84-3.1c0.01-1.8-0.47-3.51-1.34-5.03c0.01-0.32,0.02-0.64,0.08-0.95c0.08-0.89,0.29-1.76,0.68-2.56
		c0.37-0.8,0.77-1.63,1.39-2.32c1.16-1.43,2.88-2.62,5.14-2.89c0.46-0.06,0.93-0.04,1.41-0.01
		C1120.73,1015.58,1123.15,1019.38,1122.62,1023.56z M1097.43,1035.17c-1.98-0.72-3.35-2.06-4.1-3.46
		c-0.42-0.68-0.62-1.43-0.75-2.13c-0.17-0.7-0.18-1.42-0.05-2.12c0.06-0.71,0.23-1.4,0.57-2.05c0.32-0.64,0.68-1.34,1.26-1.91
		c1.08-1.2,2.73-2.22,4.83-2.51c0.43-0.06,0.87-0.06,1.32-0.05c0.56,0.18,1.1,0.41,1.6,0.69c0.65,0.36,1.23,0.82,1.74,1.33
		c0.02,0.02,0.04,0.04,0.06,0.06c1.5,1.53,2.34,3.61,2.06,5.82c-0.01,0.09-0.05,0.17-0.06,0.25c-0.01,0.05-0.03,0.1-0.04,0.16
		c-0.12,0.64-0.33,1.25-0.62,1.83c-1.23,2.46-3.84,4.17-6.82,4.35C1098.1,1035.35,1097.74,1035.28,1097.43,1035.17z
		 M1105.89,1013.96c-1.25,1.19-2.25,2.65-2.92,4.29c-1.14-0.5-2.37-0.88-3.7-1.03c-1.57-0.17-3.11-0.03-4.54,0.35l-5.26-1.53
		c0.24,0.04,0.49,0.09,0.74,0.11c4.05,0.43,7.87-0.99,10.48-3.52L1105.89,1013.96z M1144.26,1018.06c-1.98-0.72-3.35-2.06-4.1-3.46
		c-0.42-0.68-0.62-1.43-0.75-2.13c-0.17-0.7-0.18-1.42-0.04-2.12c0.06-0.71,0.23-1.4,0.57-2.05c0.32-0.65,0.68-1.34,1.26-1.91
		c1.08-1.2,2.73-2.22,4.83-2.51c0.43-0.06,0.89-0.06,1.34-0.05c3.53,1.11,5.89,4.36,5.44,7.9c-0.46,3.65-3.72,6.36-7.57,6.57
		C1144.91,1018.24,1144.57,1018.18,1144.26,1018.06z"/>
</g>
</svg>
