<?xml version="1.0" encoding="utf-8"?>
<!-- Generator: Adobe Illustrator 26.0.1, SVG Export Plug-In . SVG Version: 6.00 Build 0)  -->
<svg version="1.1" id="Layer_1" xmlns="http://www.w3.org/2000/svg" xmlns:xlink="http://www.w3.org/1999/xlink" x="0px" y="0px"
	 viewBox="0 0 2000 2000" style="enable-background:new 0 0 2000 2000;" xml:space="preserve">
<style type="text/css">
	.st0{fill:#948389;}
	.st1{fill:#CCB055;}
</style>
<g>
	<g>
		<path class="st0" d="M974.48,863.85l-1.54-1.44l-0.14,2.1c-4.24,64.41,12.69,76.72,25.05,85.7c0.81,0.59,1.61,1.17,2.38,1.75
			l0.91,0.69l0.06,0.41c0.02,0.1,0.03,0.21,0.04,0.32l0.54-1.94C1011.9,915.24,993.4,881.63,974.48,863.85z"/>
		<path class="st0" d="M1010.76,827.37c-7.19-10.42-16.24-17.82-24.84-20.3l-1.36-0.39l0.1,1.42c1.29,19.33,6.26,34.98,14.78,46.49
			c9.13,12.35,19.38,15.91,24.68,16.94l0.92,0.18l0.21,0.47c0.07,0.15,0.14,0.31,0.21,0.46l-0.15-2.16
			C1023.85,850.16,1016.59,835.82,1010.76,827.37z"/>
		<path class="st0" d="M1027.12,762.99l-0.03-0.4c-1.42-21.78-25.83-41.52-42.71-46.08l-1.25-0.34v1.3
			c0,29.25,28.1,40.37,41.61,45.72l2.45,0.97L1027.12,762.99L1027.12,762.99z"/>
		<path class="st0" d="M1082.6,790.92c1.67,0.15,3.33,0.22,4.94,0.22c10.46,0,18.91-3.19,25.11-9.48
			c10.23-10.39,11.6-26.45,10.8-34.31l-0.31-3.07l-1.54,2.67c-3.06,5.32-9.86,9.78-17.06,14.5c-11.09,7.27-23.65,15.49-22.84,28.54
			l0.05,0.85L1082.6,790.92z"/>
		<path class="st0" d="M1106.35,852.19c15.14,0,25.21-2.77,30.77-8.46c4.13-4.23,5.72-10.14,4.72-17.56l-0.11-0.82l-0.83-0.04
			c-31.19-1.38-45.54,14.48-53.21,23.01l-2.24,2.47l1.94,0.22C1094.37,851.8,1100.75,852.19,1106.35,852.19z"/>
		<path class="st0" d="M1040.92,968.27c33.59,0,50.45-24.96,55.12-39.71l1.5-4.72l-3.2,3.78c-4.25,5.02-12.95,6.15-22.17,7.35
			c-16.42,2.14-36.84,4.8-39.34,31.85l-0.09,0.98l0.99,0.1C1036.14,968.15,1038.56,968.27,1040.92,968.27z"/>
		<path class="st0" d="M1048.46,871.15l0.84-3.01c0.87-2.64,1.75-5.29,2.57-7.96c2.02-6.33,3.91-13.07,5.96-21.25
			c1.96-8.25,3.21-14.66,4.06-20.76l0.11-0.33l1.26-2.1c0.4-0.54,0.86-1.16,1.45-1.76c0.28-0.34,0.68-0.71,1.11-1.08
			c0.37-0.36,0.82-0.72,1.31-1.07c0.81-0.62,1.85-1.24,3.13-1.86c1.12-0.54,2.38-1,3.73-1.36c0.62-0.16,1.23-0.3,1.85-0.43l0.52-0.1
			l0.38,0.38c8.49,8.43,16.78,12.71,24.65,12.71c4.43,0,7.87-1.41,9.98-2.59c7.66-4.3,12.23-13.36,11.05-18.29l-0.35-1.44l-1.2,0.87
			c-3.24,2.34-8.45,1.96-14.5,1.53c-8.7-0.62-19.53-1.4-29.53,5.69l-1.62,1.15l-0.62,0.08c-0.24,0.03-0.47,0.06-0.7,0.1
			c-1.4,0.25-2.72,0.6-3.91,1.04c-0.34,0.13-0.68,0.28-1.01,0.43l-3.21,1.4l3.37-5.15c0.62-0.9,1.26-1.82,1.94-2.75l0.89-1.19
			c0.79-1.06,1.6-2.13,2.47-3.18c1.23-1.56,2.54-3.07,3.65-4.33c-1.21,1.2-2.62,2.62-3.94,4.09c-0.96,1.01-1.84,2.04-2.7,3.05
			l-0.96,1.12c-0.73,0.87-1.43,1.75-2.1,2.61c-0.38,0.49-0.77,0.97-1.14,1.44l-4.63,6.33l0.33-3.58c0.43-4.7,0.65-9.55,0.66-14.44
			c-0.09-7.79-0.88-15.2-1.71-22.03c-1-7.78-2.32-14.87-4.04-21.7c-0.81-3.31-1.83-6.78-3.11-10.63c-0.96-2.77-2.17-6.08-3.87-9.52
			l-0.19-0.39l0.68-1.78c0.58-1.58,1.33-3.84,2.04-6.2l0.73-2.46c1.27-4.3,2.71-9.16,4.83-14l0.17-0.4l0.86-0.3
			c11.95-4.18,27.39-15.01,33.06-28.94c2.96-7.27,2.78-14.34-0.54-21l-0.59-1.18l-0.98,0.89c-2.1,1.92-4.77,4-7.6,6.19
			c-12.48,9.71-29.56,23-24.65,43.33l0.26,1.07l-0.17,0.33c-0.47,0.91-0.92,1.83-1.37,2.74c-0.75,1.6-1.45,3.2-2.06,4.73
			c-0.91,2.26-1.72,4.43-2.45,6.39l-1.23,3.25c-0.32,0.83-0.62,1.61-0.91,2.3l-1.32,3.13l-1.03-1.48c-1.32-1.89-2.65-3.76-4-5.62
			l-0.17-0.24l-0.01-0.3c-1.39-27.23-25.07-48.72-41.63-53.76l-1.13-0.34l-0.15,1.17c-1.62,13.08,3.7,25.97,15.4,37.27
			c8.66,8.37,19.27,14.35,25.71,16.93l0.28,0.11l5.93,8.73c1.41,2.8,2.7,6.05,4.01,10.04c1.22,3.82,2.18,7.25,2.93,10.48
			c1.6,6.67,2.86,13.9,3.74,21.46c0.22,2.01,0.43,4.03,0.62,6.06l0.23,2.43l-2.18-1.86c-0.23-0.2-0.47-0.41-0.72-0.6
			c-3.53-2.62-8.18-4.7-13.11-6.91c-2.44-1.09-4.97-2.23-7.44-3.46c-0.01,0-0.01-0.01-0.02-0.01c0.01,0,0.02,0.01,0.03,0.01
			c2.39,1.37,4.85,2.66,7.23,3.9c4.83,2.53,9.39,4.92,12.46,7.53c1.2,1.01,2.13,2.02,2.78,2.99c0.58,0.78,0.92,1.55,1.18,2.21
			l0.07,0.31c0.22,3.54,0.32,6.43,0.32,9.12c-0.12,7.95-0.7,15.03-1.8,21.64c-0.63,4.33-1.5,8.91-2.75,14.38l-0.52,2.29l-1.28-1.97
			c-0.41-0.63-0.85-1.29-1.33-2c-2.29-3.41-5.11-7.39-7.96-11.22l-0.2-0.27l0.02-1.13c0.35-17.35-13.2-37.82-36.49-42.04l-1.36-0.24
			l0.19,1.36c3.96,27.82,21.46,35.35,31.91,39.85c1.57,0.68,3.05,1.31,4.3,1.94l1.32,0.66l0.15,0.24c2.5,3.97,4.96,8.08,6.94,11.57
			c1.22,2.13,2.15,3.88,2.83,5.17l0.17,0.33l0.07,0.67l-0.42,1.72c-2.12,8.08-4.08,14.73-6.15,20.97c-2.04,6.37-4.33,12.79-6.55,19
			l-0.59,1.66c-1.9,5.2-3.87,10.38-5.84,15.55l-1.24,3.27l-0.79-4.1c-0.12-0.61-0.24-1.22-0.35-1.85c-0.41-1.78-0.96-3.75-1.67-5.96
			l-0.45-1.25c-0.58-1.62-1.17-3.3-1.9-4.92c-0.81-2.03-1.78-4.03-2.72-5.96l-0.14-0.3c0,0.01,0,0.01,0.01,0.02l0.15,0.36
			c0.82,1.96,1.66,3.99,2.35,6.01c0.63,1.62,1.12,3.28,1.6,4.89l0.4,1.34c0.59,2.29,1.02,4.24,1.33,6.01
			c0.07,0.65,0.16,1.22,0.24,1.79c0.19,1.29,0.36,2.52,0.32,3.73l0.06,2.29c0.03,0.55-0.04,1.05-0.09,1.49
			c-0.03,0.21-0.05,0.42-0.07,0.62l-0.09,0.56l-3.61,9.33c-3.62,9.35-7.37,19.02-10.93,28.61c-2.38,6.37-4.8,13.15-7.41,20.73
			c-1.49,4.5-2.93,8.98-4.26,13.31l-1.51,4.89l-0.43-5.1c-0.16-1.91-0.37-3.9-0.63-5.96c-0.54-4.73-1.37-9.71-2.03-13.52l-0.01-0.03
			c0,0.01,0,0.03,0.01,0.04c0.46,3.83,1.02,8.82,1.3,13.58c0.26,3.63,0.4,7.51,0.41,11.84l-0.04,1.74c-0.02,0.96-0.04,1.87-0.09,2.7
			l-0.03,0.21c-0.75,2.7-1.47,5.34-2.09,7.99l-1.33,5.39l-1.15,5.4c-1.38,6.32-2.52,13.26-3.61,21.85
			c-0.64,6.65-1.3,14.43-1.08,22.15c0.02,0.67,0.03,1.34,0.03,2.01c0.01,1.18,0.02,2.36,0.11,3.55l0.43,5.65
			c0.1,1.87,0.35,3.65,0.62,5.45l0.63,4.46l4.03-0.57l-0.62-4.45c-0.27-1.87-0.53-3.7-0.6-5.47l-0.38-5.26
			c-0.09-1.16-0.09-2.34-0.1-3.52c0-0.63-0.01-1.26-0.02-1.89c-0.19-7.48,0.48-15.09,1.13-21.63c1.1-8.49,2.25-15.3,3.62-21.46
			l0.95-4.22c0.18-0.36,0.36-0.73,0.54-1.13c0.47-1.03,1.11-2.07,1.79-3.18c0.38-0.61,0.76-1.25,1.14-1.91l0.62-0.91
			c1.07-1.57,2.18-3.19,3.49-4.86l0.38-0.48c1.45-1.82,2.96-3.7,4.68-5.55c1.14-1.32,2.42-2.64,3.53-3.76l0.39-0.39l3.07,0.7
			c1.79,0.42,4.29,1.04,7.35,1.84l1.62,0.42c2.66,0.69,5.64,1.47,8.82,2.23c2.96,0.7,6.18,1.37,9.56,1.99l0.32,0.12l2.22,1.3
			c19.3,11.32,34.99,14.59,46.24,9.62c8.03-3.54,13.49-11.14,15.79-21.96l0.21-0.98l-0.98-0.2c-22.76-4.69-44.65,3.83-61.19,11.77
			l-1.12,0.54l-0.34-0.08c-3.52-0.83-7.06-1.78-10.52-2.82c-3.14-0.95-6.09-1.91-8.73-2.77l-1.51-0.49
			c-2.98-0.97-5.53-1.76-7.29-2.29l-1.65-0.49l1.33-1.59c1.64-1.55,3.34-3.16,5.11-4.66l-0.02,0.01c-1.82,1.41-3.6,2.96-5.31,4.45
			l-2.82,2.53c-1.64,1.51-3.19,2.95-4.62,4.47c-1.86,1.82-3.49,3.7-5.07,5.52l-0.31,0.35c-0.84,0.99-1.62,1.98-2.37,2.95l-3.06,3.99
			l1.31-4.86c0.57-2.12,1.16-4.24,1.76-6.36c1.79-6.31,3.9-13.14,6.45-20.87c2.54-7.51,4.91-14.27,7.26-20.65
			c3.45-9.42,7.1-18.97,10.62-28.2c1.63-4.28,3.27-8.55,4.89-12.84c2.67-7.04,5.24-13.97,7.63-20.62c0.43-1.2,0.84-2.41,1.26-3.63
			l0.76-2.05c0.37-0.48,0.76-0.98,1.22-1.5c1.33-1.48,2.56-2.68,3.85-3.79c3-2.66,7.02-5.52,11.9-8.49l0.4-0.24l2.31,0.81
			c0.42,0.14,0.86,0.32,1.34,0.53l0.86,0.35c0.53,0.21,1.13,0.48,1.77,0.78l1.07,0.49c2.22,1.02,4.8,2.34,7.53,3.74
			c2.41,1.23,4.97,2.54,7.56,3.79l0.13,0.06l-0.14-0.08c-2.45-1.44-4.88-2.93-7.18-4.36c-2.62-1.62-5.09-3.14-7.24-4.36l-1.06-0.59
			c-0.6-0.34-1.17-0.66-1.73-0.93l-3.04-1.54l1.63-0.91c2.89-1.62,5.82-3.15,8.71-4.56c-10.73,4.62-19.86,9.76-25.72,14.46
			L1048.46,871.15z"/>
		<path class="st0" d="M1111.52,890.78c3.1,0,6.29-0.6,9.22-1.74c7.41-2.88,11.87-8.56,10.37-13.2l-0.23-0.7l-0.73,0.01
			c-4.56,0.11-8.82-0.78-13.32-1.72l-0.75-0.16c-7.54-1.56-16.07-3.33-27.74-1.48l-1.29,0.2l0.54,1.19
			C1094.6,888.5,1105.59,890.78,1111.52,890.78z"/>
	</g>
	<path class="st1" d="M1085.27,851.78l2.02,0.22c7.05,0.79,13.4,1.18,19.07,1.18c15.39,0,25.76-2.9,31.48-8.76
		c4.36-4.46,6.04-10.65,5-18.38l-0.22-1.65l-1.66-0.07c-31.75-1.43-46.22,14.69-54.01,23.35l-2.45,2.71
		c-2.68,1.02-5.38,2.11-8.07,3.27c-9.9,4.26-19.49,9.4-25.96,14.61c-0.08,0.06-0.14,0.12-0.22,0.18c0.88-2.65,1.75-5.3,2.58-7.97
		c2.24-7.01,4.18-14.14,5.97-21.3c1.63-6.89,3.1-13.83,4.08-20.87c0.1-0.18,0.18-0.35,0.29-0.56c0.05-0.1,0.12-0.23,0.17-0.33
		c0.14-0.23,0.29-0.47,0.45-0.73c0.46-0.61,0.96-1.33,1.62-2c0.31-0.37,0.67-0.69,1.06-1.03c0.37-0.36,0.79-0.68,1.23-1
		c0.87-0.67,1.89-1.25,2.99-1.78c1.1-0.52,2.3-0.96,3.56-1.3c0.59-0.15,1.18-0.29,1.79-0.41c10.14,10.07,18.76,12.99,25.35,12.99
		c4.47,0,8.01-1.34,10.47-2.72c8.16-4.58,12.82-14.01,11.53-19.39l-0.69-2.89l-2.41,1.74c-2.95,2.13-8,1.76-13.84,1.34
		c-8.86-0.64-19.89-1.42-30.18,5.87l-1.42,1.01c-0.37,0.05-0.74,0.09-1.11,0.15c-1.41,0.25-2.79,0.61-4.09,1.09
		c-0.44,0.17-0.86,0.35-1.28,0.54c0.2-0.31,0.38-0.6,0.58-0.92c0.93-1.32,1.87-2.75,2.92-4.17c1.07-1.41,2.13-2.9,3.33-4.32
		c1.15-1.46,2.39-2.89,3.64-4.31c1-1.14,2.04-2.24,3.08-3.32l0.6,0.05c1.72,0.15,3.4,0.23,5.02,0.23c10.74,0,19.41-3.28,25.82-9.78
		c10.49-10.65,11.9-27.08,11.08-35.11l-0.63-6.14l-3.08,5.34c-2.94,5.12-9.65,9.51-16.75,14.17c-11.31,7.41-24.13,15.81-23.28,29.43
		l0.04,0.59c-1.13,1.03-2.25,2.08-3.34,3.17c-1.36,1.36-2.71,2.73-3.98,4.14c-1.31,1.37-2.49,2.82-3.68,4.18
		c-1.17,1.38-2.23,2.78-3.27,4.07c-0.9,1.23-1.75,2.38-2.54,3.47c0.44-4.82,0.66-9.67,0.67-14.53c-0.09-7.53-0.81-14.75-1.72-22.15
		c-0.94-7.33-2.25-14.63-4.07-21.82c-0.88-3.6-1.95-7.16-3.13-10.7c-1.13-3.27-2.32-6.42-3.92-9.64c0.14-0.37,0.31-0.8,0.52-1.37
		c0.55-1.49,1.29-3.71,2.07-6.27c1.4-4.62,2.99-10.59,5.52-16.35l0.45-0.16c12.15-4.25,27.87-15.29,33.65-29.5
		c3.07-7.55,2.88-14.89-0.57-21.82l-1.18-2.37l-1.95,1.78c-2.05,1.88-4.72,3.95-7.53,6.14c-12.69,9.87-30.07,23.39-25.01,44.35
		l0.17,0.71c-0.47,0.92-0.93,1.84-1.38,2.76c-0.76,1.62-1.46,3.22-2.09,4.79c-1.26,3.14-2.33,6.09-3.27,8.58
		c-0.48,1.23-0.91,2.38-1.32,3.35c-0.23,0.53-0.43,1.02-0.62,1.47c-1.32-1.89-2.66-3.77-4.01-5.64
		c-1.41-27.69-25.41-49.51-42.33-54.66l-2.26-0.69l-0.29,2.35c-1.66,13.4,3.76,26.58,15.69,38.1c9.41,9.09,20.55,14.95,26.04,17.14
		l5.76,8.48c1.49,2.98,2.79,6.43,3.89,9.79c1.09,3.42,2.09,6.88,2.91,10.4c1.68,7.02,2.88,14.16,3.72,21.35
		c0.22,2,0.42,4.01,0.61,6.04c-0.36-0.31-0.7-0.62-1.09-0.91c-5.41-4.01-13.3-6.76-20.7-10.47c-3.14-1.54-6.19-3.22-9-5l-0.04-0.69
		c-1.45-22.23-26.27-42.34-43.44-46.98l-2.51-0.68v2.6c0,29.93,28.53,41.22,42.24,46.64l3.91,1.55l-0.04-0.67
		c2.51,1.75,5.2,3.42,7.96,4.98c7.26,4.16,15.08,7.53,19.54,11.33c1.11,0.94,1.99,1.88,2.6,2.78c0.53,0.72,0.84,1.41,1.09,2.03
		c0.19,3.04,0.32,6.07,0.31,9.05c-0.1,7.17-0.6,14.36-1.78,21.48c-0.7,4.8-1.66,9.57-2.73,14.32c-0.42-0.64-0.86-1.3-1.34-2.01
		c-2.15-3.21-4.96-7.18-7.98-11.25l0.02-0.79c0.36-17.77-13.5-38.73-37.31-43.04l-2.71-0.49l0.39,2.73
		c4.04,28.38,21.86,36.04,32.51,40.63c1.56,0.67,3.03,1.3,4.24,1.91l1.07,0.54c2.64,4.2,5.07,8.26,6.92,11.53
		c1.21,2.13,2.14,3.86,2.81,5.14c0.06,0.11,0.1,0.2,0.16,0.3c-0.14,0.57-0.27,1.15-0.42,1.72c-1.84,7.01-3.83,13.99-6.12,20.89
		c-2.21,6.92-4.69,13.78-7.14,20.64c-1.9,5.19-3.87,10.36-5.83,15.53c-0.16-0.81-0.33-1.64-0.48-2.5c-0.45-1.97-1.04-4.01-1.7-6.09
		c-0.74-2.05-1.45-4.2-2.39-6.27c-0.85-2.12-1.86-4.19-2.86-6.27c-0.2-0.4-0.41-0.8-0.61-1.2l-0.16-2.21
		c-1.46-20.53-8.81-35.04-14.71-43.6c-7.31-10.6-16.57-18.15-25.38-20.7l-2.73-0.79l0.19,2.83c1.3,19.53,6.34,35.35,14.97,47.02
		c9.33,12.62,19.85,16.27,25.29,17.32l0.41,0.08c0.31,0.69,0.62,1.37,0.91,2.07c0.87,2.1,1.76,4.19,2.47,6.29
		c0.81,2.08,1.37,4.19,1.98,6.2c0.53,2.03,0.98,4.02,1.3,5.89c0.21,1.89,0.6,3.67,0.55,5.31c0.02,0.82,0.04,1.6,0.06,2.35
		c0.04,0.75-0.12,1.39-0.16,2.03c-0.01,0.09-0.02,0.17-0.03,0.26c-4.87,12.62-9.82,25.22-14.55,37.95
		c-2.56,6.87-5.02,13.8-7.41,20.75c-1.47,4.43-2.9,8.87-4.27,13.34c-0.17-1.92-0.37-3.93-0.63-6c-0.5-4.36-1.24-8.97-2.04-13.56
		c-0.11-0.59-0.22-1.18-0.34-1.78l0.55-1.99c10.23-36.62-8.47-70.6-27.58-88.57l-3.07-2.89l-0.28,4.21
		c-4.27,64.96,12.91,77.45,25.46,86.58c0.81,0.59,1.6,1.16,2.36,1.74l0.58,0.44c0.12,0.86,0.23,1.71,0.34,2.57
		c0.55,4.59,1.04,9.2,1.3,13.51c0.31,4.32,0.39,8.35,0.4,11.79c-0.05,1.6-0.05,3.08-0.12,4.38c-0.74,2.66-1.47,5.33-2.1,8.03
		l-1.32,5.38l-1.16,5.43c-1.58,7.23-2.69,14.57-3.63,21.94c-0.71,7.4-1.3,14.83-1.09,22.3c0.05,1.87,0,3.72,0.15,5.61l0.43,5.66
		c0.1,1.91,0.36,3.72,0.63,5.53l0.77,5.43l5.99-0.84l-0.75-5.44c-0.27-1.82-0.52-3.63-0.59-5.37l-0.38-5.29
		c-0.13-1.76-0.07-3.58-0.12-5.36c-0.18-7.17,0.42-14.35,1.12-21.51c0.93-7.15,2.03-14.28,3.6-21.35l0.87-3.99
		c0.18-0.37,0.37-0.75,0.55-1.16c0.69-1.52,1.84-3.17,2.89-5.01c1.21-1.76,2.5-3.7,4.02-5.64c1.54-1.93,3.16-3.98,5.01-5.96
		c1.09-1.27,2.29-2.51,3.51-3.75c0.41,0.09,1.27,0.29,2.53,0.58c1.78,0.42,4.27,1.04,7.33,1.83c3.05,0.79,6.61,1.74,10.46,2.66
		c3.06,0.73,6.32,1.4,9.62,2l2.22,1.3c13.65,8.01,25.47,12.03,35.3,12.03c4.34,0,8.29-0.78,11.85-2.35
		c8.33-3.68,13.99-11.51,16.36-22.67l0.42-1.96l-1.96-0.4c-23.05-4.76-45.14,3.83-61.82,11.85l-0.81,0.39
		c-3.59-0.85-7.14-1.8-10.46-2.8c-3.74-1.14-7.23-2.28-10.22-3.26c-2.99-0.97-5.54-1.77-7.31-2.3c-0.1-0.03-0.17-0.05-0.27-0.08
		c1.76-1.67,3.54-3.36,5.42-4.95l3.3-2.83c0.12-0.1,0.24-0.19,0.36-0.29l0.78,0.08c2.52,0.25,4.95,0.37,7.3,0.37
		c33.93,0,51.13-24.8,56.07-40.4l2.99-9.45l-6.41,7.56c-4,4.72-12.52,5.83-21.54,7.01c-16.76,2.18-37.62,4.9-40.2,32.75l-0.06,0.65
		c-0.14,0.1-0.27,0.2-0.41,0.3l-3.46,2.72c-2.32,1.8-4.52,3.76-6.71,5.65c-2.11,1.98-4.25,3.88-6.15,5.9
		c-1.98,1.94-3.73,3.98-5.4,5.9c-0.86,1.01-1.65,2.01-2.41,3c0.57-2.12,1.16-4.24,1.75-6.35c1.98-6.98,4.16-13.92,6.44-20.83
		c2.33-6.9,4.73-13.77,7.25-20.62c5.02-13.7,10.32-27.33,15.51-41.03c2.6-6.85,5.15-13.73,7.64-20.64c0.64-1.8,1.25-3.61,1.88-5.41
		c0.35-0.46,0.73-0.94,1.18-1.45c1.03-1.15,2.26-2.42,3.75-3.69c3.12-2.76,7.2-5.62,11.78-8.39c0.26,0.09,0.91,0.32,1.87,0.66
		c0.65,0.22,1.33,0.53,2.17,0.87c0.82,0.32,1.78,0.79,2.81,1.25c4.11,1.9,9.5,4.83,15.06,7.51l0.4,0.86
		c6.17,13.49,15.92,18.17,24.83,18.17c3.39,0,6.67-0.68,9.58-1.81c7.91-3.07,12.62-9.28,10.96-14.44l-0.45-1.39l-1.46,0.01
		c-4.71,0.11-9.15-0.88-13.86-1.85c-7.61-1.58-16.24-3.37-28.1-1.49l-0.97,0.15c-5.26-3.08-10.37-6.43-14.44-8.72
		c-1.04-0.57-1.94-1.11-2.84-1.55c-0.49-0.24-0.94-0.47-1.36-0.69c2.8-1.57,5.71-3.1,8.68-4.54
		C1079.91,854.17,1082.6,852.94,1085.27,851.78z M1139.07,828.24c0.46,5.73-0.88,10.13-4.08,13.41c-6.31,6.46-20.41,8.78-41.92,6.92
		c4.11-1.6,8.02-2.98,11.44-4.05c7.65-2.46,12.96-3.31,12.96-3.31s-5.35,0.61-13.14,2.72c-3.53,0.93-7.58,2.15-11.86,3.59
		C1100.18,839.29,1113.53,827.58,1139.07,828.24z M1106.17,804.21c5.04,0.36,9.55,0.68,13.24-0.49c-0.82,3.7-3.94,9.13-9.49,12.24
		c-8.17,4.59-18.27,1.96-28.65-7.35c4.35-0.13,8.61,0.49,11.87,1.19c4.06,0.87,6.68,1.85,6.68,1.85s-2.51-1.21-6.52-2.45
		c-2.92-0.91-6.68-1.84-10.74-2.2C1090.5,803.1,1098.75,803.68,1106.17,804.21z M1106.15,763.96c5.45-3.57,10.68-7,14.45-10.88
		c-0.31,7.75-2.63,18.93-10.08,26.49c-5.97,6.06-14.31,8.91-24.81,8.53c2.92-2.76,5.81-5.21,8.36-7.1c2.27-1.73,4.28-3,5.7-3.88
		c1.45-0.82,2.28-1.29,2.28-1.29s-0.86,0.42-2.36,1.14c-1.47,0.78-3.58,1.93-5.97,3.52c-2.71,1.74-5.81,4.03-8.96,6.66
		C1085.81,777.31,1096.13,770.52,1106.15,763.96z M1085.17,664.07c2.02-1.57,3.96-3.08,5.69-4.53c1.87,5.15,1.68,10.57-0.59,16.14
		c-4.59,11.28-16.86,21.06-27.81,25.86c0.24-0.45,0.49-0.9,0.73-1.35c0.9-1.48,1.76-2.96,2.71-4.33c0.96-1.35,1.84-2.7,2.8-3.88
		c0.95-1.2,1.8-2.36,2.7-3.35c0.87-1.01,1.68-1.93,2.39-2.75c0.75-0.79,1.4-1.47,1.94-2.04c1.08-1.13,1.69-1.78,1.69-1.78
		s-0.66,0.6-1.81,1.65c-0.58,0.53-1.28,1.17-2.08,1.9c-0.77,0.77-1.64,1.64-2.59,2.59c-0.97,0.93-1.91,2.04-2.95,3.18
		c-1.06,1.12-2.04,2.42-3.11,3.73c-1.06,1.31-2.04,2.76-3.07,4.21c-0.27,0.43-0.55,0.86-0.83,1.29
		C1059.3,684.24,1073.53,673.12,1085.17,664.07z M1004.05,671.24c14.15,5.43,32.21,22.13,36.36,43.57c-0.95-1.24-1.9-2.47-2.86-3.7
		c-2.4-3.03-4.86-6.02-7.44-8.92c-1.26-1.47-2.62-2.86-3.94-4.28c-1.36-1.38-2.76-2.73-4.23-4.01c2.26,3.15,4.4,6.35,6.55,9.54
		l6.42,9.59l2.76,4.06C1024.34,710.05,1002.87,693.8,1004.05,671.24z M986.21,720.17c20.58,6.77,34.71,26.01,37.46,39.38
		c-0.56-0.22-1.13-0.46-1.71-0.69c-1.36-1.06-2.6-2.14-3.7-3.17c-2.3-2.1-4.01-4.06-5.21-5.43c-1.14-1.42-1.8-2.23-1.8-2.23
		s0.61,0.85,1.66,2.34c1.11,1.44,2.71,3.52,4.9,5.77c0.53,0.56,1.09,1.13,1.69,1.7C1005.87,752,987.61,741.77,986.21,720.17z
		 M1010.7,778.39c17.98,4.48,29.1,19.51,30.95,33.69c-3.43-4.43-6.86-8.63-9.64-11.81c-3.2-3.73-5.59-5.98-5.59-5.98
		s2.21,2.42,5.1,6.37c2.49,3.33,5.54,7.7,8.57,12.3C1029.97,808.61,1015.09,802.01,1010.7,778.39z M1022.08,867.95
		c-14.47-4.26-31-21.3-34.22-57.02c12.75,5.43,29.38,23.82,33.64,52.66c-2.53-4.32-5.04-8.29-7.14-11.6
		c-3.73-5.76-6.11-9.67-6.11-9.67s2.16,4.04,5.57,10c2.41,4.29,5.4,9.63,8.22,15.39C1022.06,867.78,1022.08,867.86,1022.08,867.95z
		 M975.53,869.11c13.66,14.43,30.96,43.13,24.8,75.49c-0.19-0.86-0.39-1.71-0.59-2.54c-1-4.25-2.06-8.19-3.07-11.53
		c-0.53-1.66-0.96-3.2-1.45-4.54c-0.47-1.34-0.85-2.51-1.22-3.46c-0.74-1.89-1.17-2.98-1.17-2.98s0.37,1.1,1,3.03
		c0.33,0.96,0.63,2.16,1.03,3.51c0.41,1.35,0.76,2.91,1.2,4.59c0.82,3.38,1.67,7.35,2.44,11.62c0.32,1.73,0.61,3.52,0.9,5.33
		C987.29,938.83,972.42,927.67,975.53,869.11z M1111.82,976.6c-1.72,6.53-5.46,14.28-13.6,17.87c-8.96,3.95-21.63,1.93-36.9-5.84
		c1.36,0.12,2.72,0.22,4.03,0.31c1.97,0.13,3.89,0.13,5.7,0.19c1.81-0.03,3.52-0.06,5.1-0.08c1.58-0.09,3.02-0.17,4.3-0.25
		c1.28-0.06,2.39-0.22,3.3-0.3c1.83-0.18,2.87-0.29,2.87-0.29s-1.05,0.04-2.88,0.12c-0.92,0.02-2.03,0.12-3.31,0.1
		c-1.28,0-2.72,0-4.29-0.01c-1.57-0.07-3.27-0.14-5.06-0.22c-1.79-0.17-3.68-0.28-5.62-0.53c-1.94-0.24-3.95-0.49-5.97-0.86
		c-0.32-0.05-0.65-0.12-0.98-0.18C1073.56,979.77,1092.4,973.27,1111.82,976.6z M1072.54,937.93c6.71-0.87,13.17-1.72,18.17-4.05
		c-6.97,14.65-23.7,32.81-53.27,31.3c1.72-1.32,3.46-2.57,5.12-3.83c2.25-1.53,4.39-3.08,6.51-4.42c2.11-1.34,4.09-2.64,6-3.71
		c1.88-1.12,3.61-2.12,5.19-2.94c1.57-0.83,2.92-1.59,4.08-2.12c2.3-1.11,3.62-1.74,3.62-1.74s-1.34,0.58-3.69,1.59
		c-1.19,0.48-2.57,1.18-4.18,1.95c-1.62,0.75-3.4,1.68-5.33,2.72c-1.96,1-4,2.21-6.18,3.47c-2.19,1.25-4.4,2.71-6.73,4.16
		c-1.85,1.28-3.79,2.55-5.7,3.91C1039.51,942.25,1056.28,940.05,1072.54,937.93z M1115.48,876.2c4.35,0.9,8.48,1.76,12.92,1.91
		c-0.3,2.83-3.83,6.24-8.74,8.15c-8.24,3.2-19.98,1.99-27.54-10.88c0.89,0.37,1.78,0.72,2.64,1.08c1.38,0.47,2.68,1.02,3.97,1.37
		c1.28,0.4,2.49,0.75,3.63,0.99c1.13,0.29,2.18,0.48,3.11,0.62c0.93,0.16,1.74,0.28,2.42,0.31c1.35,0.1,2.12,0.16,2.12,0.16
		s-0.76-0.12-2.09-0.33c-0.67-0.08-1.47-0.27-2.37-0.5c-0.91-0.2-1.93-0.47-3.02-0.85c-2.8-0.87-6.05-2.27-9.4-3.99
		C1102.05,873.44,1108.88,874.83,1115.48,876.2z"/>
</g>
</svg>
