<?xml version="1.0" encoding="utf-8"?>
<!-- Generator: Adobe Illustrator 26.0.1, SVG Export Plug-In . SVG Version: 6.00 Build 0)  -->
<svg version="1.1" id="Layer_1" xmlns="http://www.w3.org/2000/svg" xmlns:xlink="http://www.w3.org/1999/xlink" x="0px" y="0px"
	 viewBox="0 0 2000 2000" style="enable-background:new 0 0 2000 2000;" xml:space="preserve">
<style type="text/css">
	.st0{fill:#948389;}
	.st1{fill:#CCB055;}
</style>
<g>
	<path class="st0" d="M1170.92,926.89c-0.99-0.14-3.85-0.8-7.48-1.64c-9.11-2.1-26.07-6.01-37.27-6.99l-2.23-0.19l1.76-1.4
		c1.54-1.23,3-2.46,4.34-3.68c10.28-9.32,17.41-20.35,17.38-24.42l-0.02-2.73l-1.92,1.94c-3.68,3.73-12.71,6.88-23.17,10.52
		c-3.63,1.26-7.73,2.7-11.85,4.23l-3.45,1.29l2.48-2.72c9.57-10.54,14.99-24.79,18.95-35.19c0.95-2.49,1.84-4.84,2.7-6.91l1.26-3.03
		l-2.86,1.61c-3.74,2.1-23.73,16.42-37.93,29.15l-2.4,2.15l0.94-3.08c6.03-19.65,9.11-40.65,9.48-52.74l0.1-3.23l-2.09,2.46
		c-6.98,8.2-13.45,19.33-19.23,33.1l-1.82,4.35l0.11-4.71c0.43-19.17-3.41-29.66-5.7-35.93l-1.16-3.17l-1.11,2.73
		c-2.64,6.51-7.89,23.37-10.46,36.04l-0.72,3.57l-1.01-3.5c-5.2-18.03-12.81-30.95-18.2-37.03l-2.55-2.88l0.58,3.8
		c0.63,4.14,0.55,10.26,0.46,17.34c-0.08,6.2-0.18,13.91,0.22,21.98l0.15,3.04l-3.64-5.08c-6.33-8.87-15-21.02-22.06-28.18
		l-2.37-2.41l0.45,3.35c1.36,10.2,6.04,28.59,13.45,46.66l1.3,3.18l-2.69-2.14c-9.03-7.19-20.56-11.21-35.15-16.28l-7.25-2.53
		l1.8,2.78c0.62,0.96,15.4,23.7,29.14,36.09l2.45,2.21l-3.23-0.67c-14.35-2.97-30.34-2.71-47.51,0.79l-3.17,0.65l2.88,1.47
		c1.21,0.62,2.67,1.39,4.35,2.29c8.44,4.5,24.12,12.86,41.57,17.98l2.98,0.87l-2.98,0.84c-5.16,1.46-11.09,3.44-16.32,5.18
		l-0.62,0.21c-9.97,3.33-20.29,6.74-24.88,6.68l-4.18-0.06l3.59,2.16c12.6,7.61,25.18,11.46,37.38,11.46c0.67,0,1.35-0.02,1.99-0.05
		l2.39-0.1l-1.74,1.65c-11.74,11.12-20.97,22.53-26.66,30.15l-1.83,2.46l2.99-0.67c12.95-2.92,27.42-10.36,43.03-22.1l3.02-2.27
		l-1.68,3.38c-4.99,10.05-7.72,19.51-9.72,26.41c-1.79,6.19-3.2,11.07-5.3,14.17l-3.06,4.52l4.61-2.93
		c9.71-6.17,22.73-15.63,29.63-25.7l1.48-2.16l0.15,2.61c0.17,3.02,0.42,6.18,0.65,9.23c0.82,10.72,1.84,24.03,1.23,41.61
		l-0.08,2.21l1.84-1.22c10.93-7.29,15.51-36.34,16.97-48.49l0.33-2.74l1.34,2.41c8.2,14.79,17.07,31.19,18.58,38.75l0.95,4.77
		l1.25-4.7c3.15-11.83,1.37-33.61,0.03-45.53l-0.37-3.28l1.97,2.65c9.7,13.01,20.18,22.97,31.18,29.6l1.9,1.15l-0.18-2.21
		c-0.5-5.96-6.97-22.74-15.82-38.21l-1.83-3.2l3.09,2.01c14.57,9.47,34.17,18.72,38.28,19.3l2.27,0.31l-1.13-1.99
		c-5.17-9.16-12.1-20.63-19.85-28.17l-2.15-2.09l2.94,0.57c4.86,0.94,9.73,1.79,14.44,2.61c4.31,0.75,9.19,1.6,13.95,2.51l3.87,0.74
		l-2.88-2.68c-10.53-9.81-24.03-17.41-33.5-22.05l-3.14-1.54l3.5-0.15c14.5-0.64,26.97-4.37,37.98-7.67
		c4.09-1.23,7.96-2.38,11.65-3.29l5.7-1.41L1170.92,926.89z"/>
	<path class="st1" d="M1171.25,929.98l10.2-2.51l-10.4-1.46c-0.94-0.13-3.76-0.78-7.4-1.62c-9.22-2.13-26.13-6.03-37.39-7.01
		c1.56-1.24,3.03-2.49,4.39-3.71c10.61-9.62,17.7-20.74,17.67-25.09l-0.04-4.88l-3.43,3.48c-3.53,3.58-12.47,6.7-22.83,10.31
		c-3.84,1.34-7.79,2.72-11.87,4.24c9.69-10.67,15.11-24.92,19.13-35.47c0.95-2.49,1.84-4.83,2.69-6.88l2.26-5.42l-5.12,2.88
		c-3.92,2.2-23.8,16.45-38.09,29.27c6.05-19.71,9.14-40.68,9.52-52.98l0.18-5.77l-3.75,4.4c-7.05,8.27-13.56,19.48-19.37,33.33
		c0.43-19.33-3.42-29.86-5.76-36.25l-1.95-5.35l-1.98,4.88c-2.7,6.67-7.95,23.6-10.51,36.2c-5.23-18.12-12.86-31.14-18.39-37.38
		l-4.56-5.15l1.04,6.8c0.62,4.06,0.54,10.15,0.45,17.19c-0.08,6.25-0.18,13.93,0.23,22.04c-0.56-0.79-1.15-1.61-1.77-2.47l-0.1-0.14
		c-6.35-8.89-15.04-21.07-22.15-28.28l-4.25-4.31l0.8,6c1.38,10.4,6.08,28.76,13.51,46.88c-9.15-7.29-20.82-11.35-35.41-16.43
		l-9.71-3.39l3.22,4.97c0.64,1,15.48,23.82,29.29,36.27c-14.48-3-30.57-2.73-47.87,0.79l-5.68,1.16l5.16,2.63
		c1.2,0.62,2.66,1.39,4.34,2.28c8.53,4.55,24.19,12.9,41.74,18.05c-5.16,1.46-11.08,3.43-16.36,5.2l-0.62,0.21
		c-9.91,3.31-20.12,6.72-24.58,6.63l-7.49-0.11l6.41,3.87c12.74,7.69,25.48,11.59,37.84,11.59c0.68,0,1.37-0.02,2.03-0.05
		c-11.75,11.13-21.01,22.56-26.76,30.27l-3.28,4.39l5.35-1.21c13.08-2.95,27.66-10.43,43.37-22.26
		c-5.02,10.12-7.75,19.56-9.78,26.56c-1.77,6.11-3.16,10.94-5.18,13.91l-5.47,8.08l8.24-5.23c9.89-6.28,22.93-15.79,29.89-25.95
		c0.18,3.03,0.42,6.19,0.65,9.27c0.82,10.68,1.83,23.96,1.23,41.49l-0.14,3.94l3.28-2.19c11.11-7.41,15.76-35.8,17.36-49.13
		c6.97,12.58,16.93,30.67,18.49,38.49l1.71,8.53l2.24-8.41c3.14-11.82,1.48-33.14,0.05-45.86c9.77,13.11,20.34,23.14,31.43,29.83
		l3.4,2.05l-0.33-3.95c-0.52-6.2-6.99-22.93-15.93-38.58c14.4,9.36,34.25,18.82,38.65,19.43l4.06,0.56l-2.01-3.57
		c-5.25-9.3-12.2-20.78-20.01-28.37c4.86,0.95,9.73,1.79,14.45,2.62c4.31,0.75,9.2,1.6,13.94,2.51l6.92,1.33l-5.15-4.8
		c-10.48-9.77-23.83-17.35-33.71-22.2c14.61-0.64,27.11-4.39,38.2-7.7C1163.73,932.04,1167.59,930.88,1171.25,929.98z
		 M1063.8,943.46c2,6.95,8.08,20.22,17,33.59c0.46,3.28,3.72,27.51,2.26,43.99c-4.01-9.61-11.29-22.74-17.22-33.42l-1.83-3.29
		c1.5-16.64,1.25-32.52-0.63-40.75C1063.53,943.54,1063.66,943.5,1063.8,943.46z M1125.47,864.82
		c-5.08,13.36-12.05,31.66-26.71,41.47c-8.79,3.84-16.19,7.95-22.52,12.51c4.42-6.33,8.48-14.61,12.09-24.67
		c10.5-10.33,27.69-23.41,37.52-30.31L1125.47,864.82z M1112.61,936.9c-4.63-1.99-9.17-3.71-13.21-5.03
		c7.53-2.38,14.81-5.97,21.66-10.66c10-0.17,30.11,4.46,41.25,7.03c-1.26,0.37-2.53,0.75-3.83,1.14
		C1145.37,933.3,1130.52,937.75,1112.61,936.9z M1116.13,959.64c8.77,5.19,17.04,17.97,22.71,27.62
		c-9.05-3.74-28.59-13.7-39.84-22.53c-3.45-5.28-6.98-9.98-10.51-13.99C1096.62,954.35,1105.47,957.2,1116.13,959.64z
		 M1068.96,940.25c20.62,8.86,41.8,50.28,46.4,67.68c-28.77-19.71-45.63-57.23-47.88-66.32
		C1068.02,941.2,1068.52,940.74,1068.96,940.25z M1071.62,931.03c-0.15-0.89-0.42-1.76-0.79-2.59
		c15.2-14.14,35.87-21.35,52.51-27.15c7.41-2.58,13.91-4.85,18.62-7.3c-1.83,3.08-6.16,9.51-14.06,16.67
		C1118.46,919.23,1098.6,933.24,1071.62,931.03z M1116.86,955.64c-16.26-3.73-28.67-8.59-40.2-15.74l-0.16-0.09
		c-1.78-1.21-3.6-2.23-5.41-3.05c0.2-0.53,0.36-1.09,0.47-1.68c2.12,0.17,4,0.25,5.76,0.25c4.72,0,9.53-0.49,14.28-1.44
		c10.18,2.23,36.28,12.43,55.14,27.4c-2.22-0.4-4.43-0.78-6.6-1.16c-7.01-1.22-14.95-2.6-22.51-4.31L1116.86,955.64z M968.23,910.85
		c19.14-3.13,36.65-1.95,52.06,3.5l0.28,0.1c11.03,3.94,18.93,9.23,24.7,13.1c1.94,1.3,3.44,2.3,4.82,3.11
		c-0.04,0.2-0.08,0.39-0.11,0.58C1019.43,937.76,984.07,919.28,968.23,910.85z M1021.27,910.37c-9.28-3.81-23.61-21.24-34.23-36.7
		c17.73,6.17,30.61,10.85,39.66,22.25c4.85,10.18,9.93,18.42,15.14,24.54C1036.36,917,1029.7,913.32,1021.27,910.37z
		 M1013.85,845.06c5.86,6.91,12.33,15.98,17.14,22.72c2.27,3.18,4.24,5.94,5.7,7.86c1.82,19.72,6.9,35.83,15.54,49.18
		C1034.79,911.92,1019.06,871.2,1013.85,845.06z M1072.69,877.83c-4.86,13.94-7.73,26.13-9.24,33.72
		c0.18-12.65-0.99-24.99-3.5-36.76c0.6-9.43,6.03-28.68,9.78-39.68C1072.43,843.49,1074.99,855.95,1072.69,877.83z M1060.82,925.98
		c3.82,0,6.92,3.11,6.92,6.93c0,3.82-3.11,6.92-6.92,6.92s-6.92-3.11-6.92-6.92C1053.9,929.08,1057,925.98,1060.82,925.98z
		 M1087.55,883.21c-3.96,13.43-10.78,31.3-20.8,40.47c-0.36-0.23-0.73-0.44-1.12-0.63c2.17-16.87,12.3-58.47,30.43-83.6
		C1095.08,850.17,1092.39,866.8,1087.55,883.21z M1040,835.15c11.23,16.72,21.84,47.89,18.93,86.95c-1.05,0.18-2.06,0.51-2.99,0.98
		c-16.63-25.35-16.23-56.43-15.95-77.03C1040.03,842.14,1040.08,838.41,1040,835.15z M1015.59,934.21
		c7.25,1.62,14.2,2.44,20.65,2.46c-8.28,3.69-17.31,9.82-26.88,18.27c-12.13,1.55-24.73-1.03-37.48-7.66
		c5.48-1.24,12.69-3.65,20.3-6.19C1000.78,938.22,1009.66,935.26,1015.59,934.21z M1051.69,938.98
		c-11.45,13.18-39.63,39.6-67.07,48.35c17.64-22.43,45.08-48.63,65.94-50.54C1050.86,937.56,1051.24,938.29,1051.69,938.98z
		 M1031.44,964.05c5.83-4.85,11.72-10.26,16.86-15.49c-5.47,10.26-7.73,19.62-7.69,31.51c-3.83,9.74-15.92,19.64-25.86,26.49
		c0.85-2.44,1.65-5.18,2.54-8.29C1020.05,988.76,1023.47,976.94,1031.44,964.05z M1045.57,996.91c-1.66-21.66-2.57-33.65,10.8-53.98
		c0.93,0.41,1.9,0.69,2.89,0.84c4.34,16.21,0.27,73.16-12.32,90.06C1047.23,1018.5,1046.31,1006.56,1045.57,996.91z"/>
</g>
</svg>
