<?xml version="1.0" encoding="utf-8"?>
<!-- Generator: Adobe Illustrator 26.0.1, SVG Export Plug-In . SVG Version: 6.00 Build 0)  -->
<svg version="1.1" id="Layer_1" xmlns="http://www.w3.org/2000/svg" xmlns:xlink="http://www.w3.org/1999/xlink" x="0px" y="0px"
	 viewBox="0 0 2000 2000" style="enable-background:new 0 0 2000 2000;" xml:space="preserve">
<style type="text/css">
	.st0{fill:#948389;}
	.st1{fill:#C4A952;}
</style>
<g>
	<path class="st0" d="M1261.45,858.27c-8.96-7.5-24.84-12.39-40.12-6.42l-0.6-1.23c7.17-4.25,11.26-9.95,12.85-17.94l0.46-2.3
		l-2.23,0.73c-17.67,5.75-23.6,11.98-29.52,22.96l-0.18,0.34l-0.38,0.02c-4.13,0.25-8.31,0.56-12.42,0.94l-2.5,0.25
		c-4.66,0.46-9.34,1.03-13.93,1.67l-3.52,0.49l3.08-1.77c23.1-13.27,26.7-28.97,25.66-39.79l-0.17-1.79l-1.68,0.63
		c-26.14,9.88-35.15,34.19-37.81,44.18l-0.11,0.42l-0.43,0.08c-2.87,0.54-5.39,1.05-7.7,1.54c-0.47,0.1-0.94,0.21-1.4,0.31
		l-0.99,0.23c-4.9,1.1-9.73,2.31-14.34,3.6l-3.8,1.06l3.22-2.28c24.24-17.2,23.2-30.23,18.47-41.75l-0.64-1.56l-1.4,0.94
		c-20.19,13.62-27.52,33.42-30.11,47.64l-0.07,0.4l-0.38,0.13c-3.51,1.21-6.67,2.37-9.68,3.55c-0.67,0.26-1.33,0.53-1.99,0.8
		l-0.85,0.35c-5.28,2.15-10.49,4.5-15.48,6.98l-3.28,1.63l2.47-2.71c19.16-21.01,23.77-41.56,19.93-51.77l-0.54-1.44l-1.37,0.69
		c-25.9,13.17-28.98,40.82-31.03,59.12l-0.24,2.11l-0.29,0.17c-4.71,2.81-9.33,5.81-13.73,8.93c-0.8,0.56-1.59,1.13-2.38,1.7
		c-3.88,2.84-7.73,5.89-11.47,9.08l-2.7,2.31l1.65-3.15c15.05-28.68,16.24-55.45,9.73-66.08l-0.8-1.31l-1.21,0.94
		c-11.67,9.1-19.1,23.62-21.47,42.01c-2.3,17.79,0.72,32.87,1.7,37.07l0.08,0.36l-0.26,0.27c-4.75,4.89-9.31,10.11-13.55,15.52
		l-0.13,0.17c-0.42,0.54-0.85,1.08-1.26,1.62c-2.65,3.46-5.25,7.11-7.73,10.84l-1.52,2.29l0.27-2.74
		c1.24-12.76,0.46-26.79-2.21-39.5c-3.79-18.02-10.69-30.16-19.44-34.19l-1.18-0.54l-0.61,1.15c-14.49,27.51,4.42,68.17,18.61,82.26
		l0.38,0.37l-0.27,0.46c-4.91,8.36-9.34,17.31-13.18,26.58l-0.2,0.49c-0.29,0.7-0.58,1.41-0.86,2.11c-0.71,1.77-1.38,3.54-2.03,5.3
		l-0.78,2.09l-0.53-2.16c-4.53-18.33-14.63-41.18-29.42-50.35c-6.37-3.95-13.01-4.98-19.76-3.06l-1.37,0.39l0.44,1.35
		c12.48,38.45,31.3,51.63,48.07,59.45l0.55,0.26l-0.19,0.58c-4.19,12.8-7.38,26.21-9.49,39.86l2.71,0.41
		c2.06-13.35,5.17-26.47,9.24-38.99c0.28-0.87,0.57-1.74,0.87-2.62c1.34-3.96,2.69-7.65,4.14-11.28l0.27-0.69l0.66,0.32
		c1.38,0.67,2.79,1.37,4.26,2.11c12.58,6.35,28.25,14.24,52.86,8.47l1.47-0.35l-0.49-1.43c-2.28-6.73-8.35-12.73-16.23-16.07
		c-10.86-4.6-24.74-3.98-39.09,1.75l-1.55,0.62l0.67-1.53c3.24-7.42,6.9-14.65,10.87-21.49c0.47-0.8,0.94-1.6,1.42-2.4
		c3.68-6.14,7.71-12.11,11.98-17.75l0.5-0.66l0.56,0.61c16.41,18.05,49.02,22.83,69.83,16.9c4.02-1.14,7.45-2.64,10.2-4.45
		l1.49-0.98l-1.32-1.19c-22.74-20.49-57.88-19.74-75.06-16.07l-1.94,0.41l1.27-1.53c2.56-3.07,5.24-6.1,7.99-9l0.86-0.91l0.04,0.15
		l1.53-1.75c2.3-2.35,4.4-4.39,6.43-6.27c5.53-5.12,11.51-10.03,17.77-14.59l0.49-0.36l0.41,0.44c7.75,8.2,31.31,33.16,60.39,33.25
		l1.27,0l0.11-1.26c0.54-6.47-2.64-13.45-8.93-19.65c-3.92-3.86-18.67-16.34-45.04-16.34c-0.29,0-0.57,0-0.86,0l-2.33,0.02
		l1.94-1.28c1.87-1.24,3.61-2.35,5.29-3.39c1.24-0.77,2.5-1.51,3.77-2.26c9.17-5.39,19.07-10.23,29.42-14.38l0.49-0.2l0.32,0.42
		c17.25,22.78,34.35,35.07,50.83,36.52l1.5,0.13l-0.01-1.51c-0.05-8.95-4.92-18.14-13.38-25.21c-5.3-4.43-14.68-10.19-29.27-12.46
		l-1.9-0.29l2.75-1.61c9.46-3.27,19.33-6.04,29.48-8.29l0.53-0.12l0.24,0.49c0.58,1.2,14.53,29.41,44.84,29.41c0.09,0,0.17,0,0.26,0
		l1.58-0.01l-0.23-1.56c-1.87-12.96-19.03-24.86-34.23-29.48l-2.75-0.84l2.83-0.5c8.27-1.45,16.92-2.63,25.7-3.48l0.53-0.05
		l0.18,0.5c3.92,10.56,18.64,25.24,37.78,23.17l1.82-0.19l-0.69-1.69c-3.84-9.37-12.31-17.69-22.09-21.71l-2.84-1.17l3.06-0.15
		c3.61-0.18,6.94-0.31,10.17-0.4l0.3-0.01l0.21,0.21c5.84,5.91,20.72,12.33,35.52,8.12c3.39-0.97,6.61-2.46,9.55-4.44l1.52-1.02
		L1261.45,858.27z"/>
	<path class="st1" d="M1261.9,857.75c-9.28-7.76-25.4-12.55-40.82-6.53c7.41-4.39,11.56-10.32,13.17-18.4l0.69-3.45l-3.34,1.09
		c-17.72,5.76-23.79,11.94-29.91,23.29c-4.2,0.25-8.35,0.57-12.44,0.95c-0.84,0.08-1.67,0.17-2.5,0.25
		c-4.72,0.47-9.38,1.03-13.96,1.67c23.05-13.25,27.11-28.92,26-40.45l-0.26-2.68l-2.52,0.95c-26.08,9.86-35.29,33.58-38.24,44.64
		c-2.59,0.49-5.17,1-7.72,1.55c-0.8,0.17-1.6,0.36-2.4,0.54c-4.89,1.09-9.68,2.3-14.38,3.61c22.93-16.27,24.28-29.01,18.71-42.57
		l-0.96-2.34l-2.09,1.41c-20.3,13.69-27.74,33.53-30.4,48.09c-3.28,1.13-6.53,2.31-9.71,3.56c-0.96,0.38-1.9,0.77-2.85,1.16
		c-5.32,2.17-10.5,4.5-15.53,7c17.84-19.55,24.44-40.84,20.07-52.47l-0.81-2.15l-2.05,1.04c-26.22,13.33-29.34,41.21-31.4,59.65
		l-0.2,1.77c-4.74,2.82-9.33,5.81-13.77,8.96c-0.8,0.57-1.6,1.13-2.38,1.71c-3.96,2.9-7.79,5.94-11.51,9.11
		c11.07-21.1,18.65-52.17,9.71-66.75l-1.2-1.96l-1.82,1.42c-11.82,9.21-19.34,23.89-21.73,42.46c-1.84,14.28-0.37,28.4,1.71,37.31
		c-4.92,5.06-9.44,10.27-13.6,15.57c-0.47,0.6-0.94,1.2-1.4,1.8c-2.75,3.59-5.33,7.22-7.76,10.88c1.23-12.63,0.48-26.85-2.22-39.71
		c-3.83-18.24-10.87-30.55-19.83-34.67l-1.77-0.82l-0.91,1.73c-15.23,28.93,5.52,69.96,18.73,83.06
		c-5.21,8.88-9.56,17.83-13.22,26.67c-0.36,0.87-0.72,1.74-1.07,2.61c-0.71,1.78-1.39,3.55-2.04,5.32
		c-4.94-19.99-15.41-41.89-29.72-50.77c-6.54-4.05-13.37-5.11-20.31-3.13l-2.05,0.58l0.66,2.03c12.36,38.09,31.25,51.85,48.43,59.86
		c-4.78,14.61-7.78,28.5-9.62,40.65l4.07,0.62c1.79-11.84,4.7-25.35,9.32-39.56c0.28-0.87,0.57-1.74,0.87-2.61
		c1.26-3.71,2.62-7.46,4.13-11.24c1.38,0.67,2.78,1.36,4.25,2.1c12.68,6.4,28.47,14.36,53.33,8.53l2.21-0.52l-0.73-2.15
		c-2.34-6.91-8.55-13.07-16.61-16.48c-11.14-4.72-25.05-4.07-39.61,1.75c3.11-7.12,6.7-14.29,10.84-21.42
		c0.46-0.8,0.94-1.59,1.41-2.39c3.57-5.96,7.54-11.88,11.94-17.69c17.11,18.82,50.04,22.94,70.52,17.1
		c4.01-1.14,7.54-2.67,10.38-4.53l2.23-1.47l-1.98-1.79c-22.65-20.4-57.54-20.1-75.66-16.23c2.52-3.03,5.17-6.02,7.96-8.96l0.05,0.2
		l2.4-2.74c2.06-2.1,4.18-4.18,6.38-6.22c5.59-5.18,11.5-10.02,17.71-14.54c8.13,8.61,31.84,33.38,60.89,33.46l1.9,0.01l0.16-1.89
		c0.55-6.68-2.69-13.85-9.14-20.2c-8.62-8.48-25-16.75-46.39-16.53c1.74-1.15,3.49-2.28,5.28-3.38c1.24-0.76,2.5-1.51,3.76-2.25
		c9.21-5.41,18.99-10.19,29.33-14.34c17.36,22.93,34.62,35.32,51.32,36.79l2.25,0.2l-0.01-2.26c-0.05-9.15-5.01-18.53-13.62-25.73
		c-5.68-4.75-15.16-10.37-29.61-12.61l1.08-0.64c9.34-3.22,19.11-5.95,29.29-8.21c4.03,8.36,19.19,29.94,45.72,29.8l2.37-0.01
		l-0.34-2.34c-2.01-13.93-20.22-25.63-34.71-30.03c8.29-1.46,16.84-2.62,25.65-3.47c3.85,10.37,18.71,25.74,38.5,23.62l2.73-0.29
		l-1.04-2.54c-3.53-8.63-11.49-17.58-22.46-22.09c3.35-0.17,6.73-0.31,10.15-0.39c6.2,6.27,21.46,12.49,36.19,8.3
		c3.31-0.94,6.6-2.41,9.75-4.53l2.28-1.53L1261.9,857.75z M943.16,943.18c5.06-0.9,10.07,0.16,14.91,3.16
		c13.91,8.62,24.24,31.75,28.57,51.13C970.55,989.57,954.51,976.66,943.16,943.18z M1036.58,985.32
		c6.12,2.59,10.98,6.92,13.42,11.86c-22.05,4.45-36.48-2.83-48.16-8.72c-0.78-0.39-1.55-0.78-2.3-1.16
		C1013.29,981.69,1026.31,980.97,1036.58,985.32z M1007.54,954.34c-11.9-13.42-28.95-49.13-17.27-74.6
		C1004.85,889.04,1011.68,926.87,1007.54,954.34z M1099,952.31c-17.09,8.72-54.53,6.47-72.68-12.76
		C1043.06,935.08,1077.21,934.71,1099,952.31z M1038.41,917.11c-3.09-16.72-4.35-52.02,17.27-70.88c3.36,7.72,2.95,20.52-1.22,35.73
		C1050.83,895.23,1044.73,908.48,1038.41,917.11z M1113.68,916.92c4.91,4.83,7.67,10.07,7.94,14.98
		c-24.59-1.13-45.24-21.03-54.12-30.28C1088.98,900.64,1105.3,908.68,1113.68,916.92z M1080.63,885.1
		c1.94-16.93,5.53-40.58,26.69-52.74C1109.82,844.51,1100.81,866.48,1080.63,885.1z M1157.82,909.88
		c-14.21-2.22-29.06-13.15-44.21-32.52C1142.29,880.06,1156.24,896.93,1157.82,909.88z M1149.11,826.19
		c3.68,10.44,3.06,22.37-25.77,40.23C1126.27,853.68,1133.18,837.85,1149.11,826.19z M1192.34,890.64
		c-21.13-1.17-34.18-17.9-38.6-25.85C1166.1,866.03,1188.15,877.45,1192.34,890.64z M1194.82,819.36
		c0.06,11.22-6.1,25.88-32.25,37.88C1166.25,845.31,1174.87,828.04,1194.82,819.36z M1223.05,878.66
		c-15.18,0.13-26.94-11.43-30.74-19.82C1206.91,859.56,1217.97,868.96,1223.05,878.66z M1207.1,852.53
		c4.88-8.11,10.14-12.58,22.16-16.92C1227.11,841.88,1221.92,848.24,1207.1,852.53z M1222.21,857.16c-0.62-0.4-1.2-0.8-1.73-1.21
		c1.07-0.5,2.14-0.91,3.22-1.29c12.29-4.33,24.93-1.23,33.22,4.48C1244.53,865.8,1230.06,862.21,1222.21,857.16z"/>
</g>
</svg>
